<svg xmlns="http://www.w3.org/2000/svg" viewBox="0 0 442.97 143.29"><defs><style>.cls-1,.cls-2,.cls-4,.cls-5{fill:none;}.cls-1,.cls-2,.cls-4{stroke:#63d768;stroke-miterlimit:10;}.cls-1{stroke-linecap:round;}.cls-1,.cls-2{stroke-width:3px;}.cls-3{fill:#63d768;}</style></defs><g id="Layer_2" data-name="Layer 2"><g id="Coin"><polyline class="cls-1" points="412.48 66.27 412.48 67.77 412.48 71.27"/><path class="cls-2" d="M405.81,47.94a11.75,11.75,0,0,1-4.32-4.67,10.89,10.89,0,0,1-1.21-4.67c0-.13,0-.25,0-.38H363.19a11.23,11.23,0,0,1-2.78,7.38,12.29,12.29,0,0,1-5.15,3.5,12.82,12.82,0,0,1-4.28.73V85.28l2.44,2.32,4.91,4.67,4.29,4.08,8,7.59,2.59,2.45,2.81,2.68h11.45l2.94-2.8,2.46-2.33,8.58-8.17c3.35-3.17,6.79-6.44,11.05-10.49V49.83A12.52,12.52,0,0,1,405.81,47.94Zm.44,23.33H384.11m-6.31,0H356.7m21.1-5H356.7m49.55,0H384.11"/><polyline class="cls-1" points="412.48 66.27 412.48 67.77 412.48 71.27"/><path class="cls-2" d="M405.81,47.94a11.75,11.75,0,0,1-4.32-4.67,10.89,10.89,0,0,1-1.21-4.67c0-.13,0-.25,0-.38H363.19a11.23,11.23,0,0,1-2.78,7.38,12.29,12.29,0,0,1-5.15,3.5,12.82,12.82,0,0,1-4.28.73V85.28l2.44,2.32,4.91,4.67,4.29,4.08,8,7.59,2.59,2.45,2.81,2.68h11.45l2.94-2.8,2.46-2.33,8.58-8.17c3.35-3.17,6.79-6.44,11.05-10.49V49.83A12.52,12.52,0,0,1,405.81,47.94Zm.44,23.33H384.11m-6.31,0H356.7m21.1-5H356.7m49.55,0H384.11"/><path class="cls-1" d="M377.8,45.13V66.27H356.7V56a10.65,10.65,0,0,0,10.4-10.87Z"/><path class="cls-1" d="M356.7,71.27h21.1v30.89l-21.1-22Z"/><path class="cls-1" d="M406.26,56V66.27H384.11V45.13h11.23A10.9,10.9,0,0,0,406.26,56Z"/><path class="cls-1" d="M384.11,71.27h22.15v8.84l-22.15,22Z"/><path class="cls-3" d="M203.72,51.48c-.29,1.16-.58,2.35-.95,3.38s-.61,2.08-.92,2.91-.48,1.58-.67,2.07-.29.78-.29.78a7.42,7.42,0,0,1-1.25-1.88,10.35,10.35,0,0,1-.82-2.39,10.56,10.56,0,0,1-.09-3.32,15.55,15.55,0,0,1,3-7,16.54,16.54,0,0,1,1.88-2.15c.5-.51.82-.79.82-.79a12.64,12.64,0,0,1,.12,2.44,21.19,21.19,0,0,1-.24,2.62A23,23,0,0,1,203.72,51.48Z"/><path class="cls-3" d="M208.26,60.43c1.9-.38,3.57-.86,4.75-1.22.57-.22,1.08-.29,1.4-.42s.5-.19.5-.19a8.36,8.36,0,0,0-1.7-1.27,9.38,9.38,0,0,0-2.07-.89,8.63,8.63,0,0,0-2.77-.22,10.16,10.16,0,0,0-3,.84A15.79,15.79,0,0,0,203,58.57,15.28,15.28,0,0,0,201.47,60c-.36.38-.56.62-.56.62a15,15,0,0,0,2.26.22,19.15,19.15,0,0,0,2.33-.08A21.71,21.71,0,0,0,208.26,60.43Z"/><path class="cls-3" d="M196.22,63.11c.24,1.18.32,2.32.47,3.43s.12,2.11.23,3,.09,1.63.09,2.16,0,.83,0,.83-.2-.1-.54-.31a8.31,8.31,0,0,1-1.32-1,10.69,10.69,0,0,1-1.59-1.89,9.55,9.55,0,0,1-1.34-3,15.83,15.83,0,0,1-.07-7.27c.24-1.06.5-2,.7-2.59s.4-1,.4-1a4.61,4.61,0,0,1,.36.53c.22.36.48.86.81,1.54a20.56,20.56,0,0,1,1,2.42C195.71,60.89,196,61.94,196.22,63.11Z"/><path class="cls-3" d="M203.86,69.64a36.52,36.52,0,0,0,4-3.21A12.27,12.27,0,0,0,209,65.31l.44-.41s-.21-.07-.59-.16a9,9,0,0,0-1.56-.23,9.52,9.52,0,0,0-2.24.15,7.56,7.56,0,0,0-2.66,1,9.47,9.47,0,0,0-2.4,1.94,12.25,12.25,0,0,0-1.68,2.29c-.42.75-.73,1.41-.95,1.89a6.09,6.09,0,0,0-.27.78s.22,0,.6-.12.91-.25,1.57-.48a18.82,18.82,0,0,0,2.18-.9C202.2,70.64,203,70.17,203.86,69.64Z"/><path class="cls-3" d="M193.52,76.43c.3.51.57,1,.82,1.53s.53,1,.76,1.51c.49,1,.81,1.93,1.2,2.75s.62,1.5.79,2c.08.25.17.44.22.57l.08.2a5,5,0,0,1-.62-.11,8.33,8.33,0,0,1-1.57-.52,10.19,10.19,0,0,1-2.12-1.27,9.43,9.43,0,0,1-2.24-2.36,13.47,13.47,0,0,1-1.68-3.32,21.89,21.89,0,0,1-.85-3.37,29.31,29.31,0,0,1-.24-3.62,11.2,11.2,0,0,1,1.87,1.48A22.44,22.44,0,0,1,193.52,76.43Z"/><path class="cls-3" d="M202.89,80a28.17,28.17,0,0,0,2.66-4.46,12.12,12.12,0,0,0,.95-2.07,9.2,9.2,0,0,0-2.11.43,9,9,0,0,0-4.23,2.78,12,12,0,0,0-.94,1.28,9.19,9.19,0,0,0-.68,1.37,11.77,11.77,0,0,0-.84,2.71c-.15.83-.23,1.57-.28,2.09a3.09,3.09,0,0,0,0,.6V85s.19-.1.52-.31.78-.53,1.33-1A20.64,20.64,0,0,0,201,82.15,27.53,27.53,0,0,0,202.89,80Z"/><path class="cls-3" d="M195.33,89.82c.45.38.87.77,1.27,1.17s.85.78,1.24,1.17.74.78,1.07,1.15.69.7,1,1l2,2.2a8.22,8.22,0,0,1-2.28.19,8.88,8.88,0,0,1-2.43-.45,10.14,10.14,0,0,1-2.94-1.48,14.55,14.55,0,0,1-2.71-2.61,23.47,23.47,0,0,1-1.91-2.93,28,28,0,0,1-1.41-3.35,11.14,11.14,0,0,1,2.25.79A23.13,23.13,0,0,1,195.33,89.82Z"/><path class="cls-3" d="M205.34,90.05a21.34,21.34,0,0,0,.69-2.69,20.74,20.74,0,0,0,.39-2.29,13.31,13.31,0,0,0,.23-2.24,8.71,8.71,0,0,0-1.86,1.09,9,9,0,0,0-3.1,4,13.09,13.09,0,0,0-.48,1.5c-.08.5-.14,1-.18,1.51s0,1,0,1.48.1.91.16,1.33a12,12,0,0,0,.47,2c.17.48.29.76.29.76a13.06,13.06,0,0,0,1.27-1.82c.33-.57.76-1.29,1.12-2.07A22.17,22.17,0,0,0,205.34,90.05Z"/><path class="cls-3" d="M201.73,101.81A30.24,30.24,0,0,1,205,103c1,.38,2,.79,2.78,1.16s1.51.59,2,.8a6.91,6.91,0,0,0,.75.33,6.93,6.93,0,0,1-2,1.13,9.43,9.43,0,0,1-5.76.41,15.39,15.39,0,0,1-6.53-3.53,14.44,14.44,0,0,1-1.89-1.9c-.44-.5-.68-.81-.68-.81a12.21,12.21,0,0,1,2.38,0,21.16,21.16,0,0,1,2.55.37A20.51,20.51,0,0,1,201.73,101.81Z"/><path class="cls-3" d="M211,98.08a36.74,36.74,0,0,0-.71-4.79c-.17-.59-.25-1.15-.35-1.5s-.16-.56-.16-.56a9,9,0,0,0-1.39,1.65,9.51,9.51,0,0,0-1,2,9.12,9.12,0,0,0-.49,2.74,10.47,10.47,0,0,0,.51,3,16.48,16.48,0,0,0,1.22,2.49c.48.67.94,1.23,1.28,1.62a3.18,3.18,0,0,0,.58.57,18.73,18.73,0,0,0,.39-2.21A30.27,30.27,0,0,0,211,98.08Z"/><path class="cls-3" d="M212.78,110.09c1.17-.13,2.39-.41,3.47-.49s2.12-.35,3-.42,1.6-.31,2.1-.37l.8-.11a6.9,6.9,0,0,1-1,2,9.45,9.45,0,0,1-1.75,1.84,9.91,9.91,0,0,1-3,1.53,13.59,13.59,0,0,1-4,.5,21.61,21.61,0,0,1-3.78-.55c-1.09-.32-2-.68-2.68-.94a7.33,7.33,0,0,1-1-.47,13.09,13.09,0,0,1,2.2-1A32,32,0,0,1,212.78,110.09Z"/><path class="cls-3" d="M218.93,102.27c-.24-.34-.47-.74-.69-1.1a11.16,11.16,0,0,0-.66-1,16.71,16.71,0,0,0-1.14-1.6,13.64,13.64,0,0,0-1.12-1.49,9,9,0,0,0-.6,2,7.73,7.73,0,0,0,.63,4.79,7.87,7.87,0,0,0,1.8,2.32,11,11,0,0,0,2.27,1.5,12.44,12.44,0,0,0,1.91.69c.49.14.79.2.79.2a17.17,17.17,0,0,0-.85-2.1c-.28-.61-.63-1.31-1-2S219.41,103,218.93,102.27Z"/><path class="cls-3" d="M213.86,50.81l-8.34,3.69.06-.2a5.66,5.66,0,0,1,.23-.54c.23-.45.58-1.1,1.07-1.87A17,17,0,0,1,209,49.47c.46-.39,1-.77,1.5-1.14.28-.19.55-.38.84-.56l.94-.45a12.39,12.39,0,0,1,1.91-.72c.65-.15,1.28-.27,1.88-.36a14.94,14.94,0,0,1,3.22,0,15.11,15.11,0,0,1,2.86.76s-1.06.53-2.61,1.14S216,49.75,213.86,50.81Z"/><path class="cls-3" d="M240.79,56.77a9.82,9.82,0,0,1,2.9.78A15.57,15.57,0,0,1,246.05,59a14.77,14.77,0,0,1,1.51,1.41c.36.37.55.6.55.6a14.43,14.43,0,0,1-2.25.24,20.19,20.19,0,0,1-2.3,0,20.57,20.57,0,0,1-2.73-.31,46.14,46.14,0,0,1-4.64-1.11c-.55-.2-1.05-.25-1.35-.38s-.49-.17-.49-.17A8.55,8.55,0,0,1,236,58a9.27,9.27,0,0,1,2-.92A8.53,8.53,0,0,1,240.79,56.77Z"/><path class="cls-3" d="M250.35,53.5a15,15,0,0,0-2.89-6.85,16.66,16.66,0,0,0-1.83-2.11c-.49-.5-.8-.77-.8-.77a12.59,12.59,0,0,0-.15,2.42,20.2,20.2,0,0,0,.21,2.59,20.64,20.64,0,0,0,.55,3.25c.27,1.14.54,2.31.89,3.32s.59,2,.88,2.86.47,1.54.64,2,.29.76.29.76a7.72,7.72,0,0,0,1.25-1.87,9.65,9.65,0,0,0,.84-2.35A10,10,0,0,0,250.35,53.5Z"/><path class="cls-3" d="M246.89,65.8a9.19,9.19,0,0,1,2.4,1.91A12.14,12.14,0,0,1,251,70c.41.73.73,1.39.94,1.86a5.74,5.74,0,0,1,.27.77s-.22,0-.6-.12-.9-.25-1.56-.46a21,21,0,0,1-2.18-.89c-.78-.38-1.57-.84-2.43-1.37a33.35,33.35,0,0,1-4-3.14,14,14,0,0,1-1.13-1.08l-.43-.41s.21-.07.58-.16a9.22,9.22,0,0,1,1.56-.24,9.33,9.33,0,0,1,2.23.13A7.51,7.51,0,0,1,246.89,65.8Z"/><path class="cls-3" d="M257,66.45a15.72,15.72,0,0,0,.1-7.21c-.23-1-.49-1.93-.69-2.56s-.4-1-.4-1-.14.18-.35.52a15.63,15.63,0,0,0-.82,1.53,18.51,18.51,0,0,0-1,2.4c-.29.92-.55,2-.81,3.13s-.33,2.29-.48,3.39-.13,2.08-.24,3-.1,1.61-.1,2.13,0,.82,0,.82.21-.1.55-.31a7.6,7.6,0,0,0,1.32-1,10.65,10.65,0,0,0,1.6-1.88A9.31,9.31,0,0,0,257,66.45Z"/><path class="cls-3" d="M249.38,76.72a11.91,11.91,0,0,1,.94,1.27,9.19,9.19,0,0,1,.68,1.37,11.63,11.63,0,0,1,.84,2.69c.15.83.24,1.56.28,2.08a4.67,4.67,0,0,1,0,.61V85s-.2-.1-.53-.31-.77-.53-1.33-1a20.64,20.64,0,0,1-1.77-1.56A25.52,25.52,0,0,1,246.66,80,27.45,27.45,0,0,1,244,75.59a13.2,13.2,0,0,1-1-2.07,9.2,9.2,0,0,1,2.11.43A9,9,0,0,1,249.38,76.72Z"/><path class="cls-3" d="M258.71,80.71a13.54,13.54,0,0,0,1.67-3.31,21.5,21.5,0,0,0,.85-3.36,26.91,26.91,0,0,0,.24-3.61,12.49,12.49,0,0,0-1.87,1.48A23,23,0,0,0,256,76.44c-.3.5-.57,1-.82,1.52s-.53,1-.76,1.51c-.49,1-.81,1.92-1.2,2.73s-.61,1.5-.78,2c-.08.24-.17.43-.22.56l-.08.21.61-.11a9.13,9.13,0,0,0,1.57-.52,10.19,10.19,0,0,0,2.12-1.27A9.59,9.59,0,0,0,258.71,80.71Z"/><path class="cls-3" d="M248.15,87.94a10.88,10.88,0,0,1,.47,1.5A12.86,12.86,0,0,1,248.8,91c0,.5,0,1,0,1.48s-.11.92-.17,1.34a12,12,0,0,1-.47,2c-.17.49-.29.77-.29.77a13.08,13.08,0,0,1-1.28-1.83c-.32-.56-.75-1.28-1.11-2.07a22.38,22.38,0,0,1-1-2.58,21.47,21.47,0,0,1-.69-2.7,20.65,20.65,0,0,1-.38-2.3,12.25,12.25,0,0,1-.23-2.25A8.53,8.53,0,0,1,245.05,84,8.91,8.91,0,0,1,248.15,87.94Z"/><path class="cls-3" d="M255.6,94.85a14.93,14.93,0,0,0,2.71-2.62,23.67,23.67,0,0,0,1.92-2.94,29.05,29.05,0,0,0,1.4-3.37,11.94,11.94,0,0,0-2.25.8,22.83,22.83,0,0,0-4.87,3.14c-.45.38-.87.78-1.27,1.18s-.85.79-1.24,1.18-.74.78-1.07,1.15-.7.7-1,1l-2,2.21a8.08,8.08,0,0,0,2.29.18,8.88,8.88,0,0,0,2.43-.45A10.5,10.5,0,0,0,255.6,94.85Z"/><path class="cls-3" d="M243.15,97.93a11.07,11.07,0,0,1-.53,3,18.64,18.64,0,0,1-1.26,2.53c-.5.67-1,1.24-1.32,1.63a3.91,3.91,0,0,1-.58.59,18.2,18.2,0,0,1-.38-2.22,30.37,30.37,0,0,1-.09-5.06,37,37,0,0,1,.77-4.85c.18-.6.26-1.17.36-1.53s.17-.57.17-.57a8.58,8.58,0,0,1,1.38,1.67,8.47,8.47,0,0,1,1.48,4.8Z"/><path class="cls-3" d="M247.26,107.2a15.71,15.71,0,0,0,6.59-3.59,16.12,16.12,0,0,0,1.91-1.92c.44-.51.68-.83.68-.83a11.57,11.57,0,0,0-2.39,0,21.82,21.82,0,0,0-2.56.38,21.32,21.32,0,0,0-3.17.86,31.64,31.64,0,0,0-3.26,1.26c-1.06.4-2,.82-2.81,1.19s-1.54.61-2,.83a7,7,0,0,1-.77.33,6.79,6.79,0,0,0,2,1.13A9.5,9.5,0,0,0,247.26,107.2Z"/><path class="cls-3" d="M234.64,104.66a8.2,8.2,0,0,1-1.89,2.36,11.54,11.54,0,0,1-2.37,1.52,11.92,11.92,0,0,1-2,.69l-.82.21a18.2,18.2,0,0,1,.89-2.1c.3-.61.66-1.31,1.08-2s.88-1.57,1.39-2.3c.26-.35.5-.75.74-1.11s.48-.68.71-1a18.93,18.93,0,0,1,1.22-1.64,13.47,13.47,0,0,1,1.21-1.53,8.5,8.5,0,0,1,.56,2A7.73,7.73,0,0,1,234.64,104.66Z"/><path class="cls-3" d="M233.57,114.8a14.27,14.27,0,0,0,4.1.47,23.35,23.35,0,0,0,3.86-.58c1.12-.34,2.07-.71,2.74-1a7.49,7.49,0,0,0,1-.49,13.59,13.59,0,0,0-2.22-1,33.16,33.16,0,0,0-5.88-1.42c-1.19-.12-2.45-.38-3.56-.45s-2.19-.34-3.08-.4-1.64-.31-2.17-.37-.83-.1-.83-.1a7,7,0,0,0,1.08,2,9.28,9.28,0,0,0,1.8,1.83A10.43,10.43,0,0,0,233.57,114.8Z"/><path class="cls-3" d="M237.19,47.88l.91.44c.28.17.55.36.82.54.52.37,1,.74,1.47,1.12a16.65,16.65,0,0,1,2,2.38,19.79,19.79,0,0,1,1,1.84,3.18,3.18,0,0,1,.22.53l.07.19-8.16-3.56c-2.06-1-4-1.85-5.47-2.6s-2.54-1.13-2.54-1.13a14.44,14.44,0,0,1,2.79-.78,15.37,15.37,0,0,1,3.13,0c.59.09,1.2.2,1.83.35A12.92,12.92,0,0,1,237.19,47.88Z"/><path class="cls-4" d="M217.55,88.32l-5.27-14.9h-1.93v-2.1h6.18v2.1h-1.81l4,11.31,3.88-11.31h-1.83v-2.1h6v2.1h-1.9l-5.15,14.9Z"/><path class="cls-4" d="M229.15,86V73.42h-2v-2.1h5.59a13.61,13.61,0,0,1,3.7.37,3.74,3.74,0,0,1,2.05,1.7,5.83,5.83,0,0,1,.83,3.13,6,6,0,0,1-.55,2.59,4,4,0,0,1-1.35,1.68,4.75,4.75,0,0,1-1.81.74,18.88,18.88,0,0,1-3,.18h-1.08V86h2v2.11h-6.36V86Zm2.36-6.36h1.35a5.33,5.33,0,0,0,3.2-.71,3,3,0,0,0,.89-2.5,3.52,3.52,0,0,0-.47-1.88,2.14,2.14,0,0,0-1.17-1,9.09,9.09,0,0,0-2.33-.21h-1.47Z"/><path class="cls-3" d="M68,37.22a10.51,10.51,0,0,1,8.1,3.92,12,12,0,0,1,2.7,7.63A10.91,10.91,0,0,1,78.7,50,11.94,11.94,0,0,1,78,53l-.93,2.54,2.43,1.19,10,4.9,3.14,1.54,8,3.92a3.33,3.33,0,0,1,.78.55,3.5,3.5,0,0,1,1,2.51v.28a4.37,4.37,0,0,1-.28,1.5,3,3,0,0,1-.26.51l0,0,0,0a3.64,3.64,0,0,1-.36.5A3.2,3.2,0,0,1,99,74.19h-.14l-13.64.62L80.43,75l2.32,4.22L85.89,85l4.43,8.08,0,.06,0,0,4.77,7.92,2.6,4.31.4.67H81.33a.3.3,0,0,1-.2-.08l0,0,0,0,0-.09-4.23-7.74-2-3.68-2.68-4.89L72,89.31a4.53,4.53,0,0,0-8,0v.06l-.07.13-2.7,4.93-2,3.69-4.25,7.77,0,0,0,0-.05,0a.25.25,0,0,1-.18.08H37.77l.29-.47L43,97.4l2.55-4.23,0-.06,0-.06.38-.69,4.14-7.55,3-5.58L55.5,75l-4.81-.22-5.83-.26-7.81-.34h-.13A3.32,3.32,0,0,1,34.41,73a4,4,0,0,1-.92-2.57v-.28a3.25,3.25,0,0,1,.08-.75,3.32,3.32,0,0,1,1.72-2.3l11.15-5.47,10-4.9,2.42-1.19L57.92,53a12.39,12.39,0,0,1-.7-3c0-.45-.06-.86-.06-1.25A12.26,12.26,0,0,1,57.28,47a12,12,0,0,1,1.86-4.93,9.93,9.93,0,0,1,.71-1A10.54,10.54,0,0,1,68,37.22m0-3a13.49,13.49,0,0,0-10.43,5,12.21,12.21,0,0,0-.91,1.23,14.88,14.88,0,0,0-2.32,6.15,15.22,15.22,0,0,0-.15,2.15c0,.52,0,1,.08,1.54A15.28,15.28,0,0,0,55.1,54l-10,4.9L34,64.4a6.26,6.26,0,0,0-3.33,4.37,6.19,6.19,0,0,0-.15,1.37v.28a7,7,0,0,0,1.64,4.51,6.25,6.25,0,0,0,4.79,2.26l7.81.34,5.83.26-3.05,5.58-4.14,7.55-.38.7-2.55,4.23-4.95,8.2-.56.93a2.67,2.67,0,0,0,2.14,4.09H54.61a3.26,3.26,0,0,0,2.27-.92,3.17,3.17,0,0,0,.69-.88l4.23-7.73,2-3.69,2.7-4.93.09-.17a1.52,1.52,0,0,1,2.71,0l.09.17,2.7,4.93,2,3.69,4.23,7.73a3.14,3.14,0,0,0,.68.88,3.27,3.27,0,0,0,2.28.92H98.86A2.67,2.67,0,0,0,101,105l-.68-1.13-2.6-4.31L93,91.62l-4.43-8.08-3.14-5.73L99,77.19a6.23,6.23,0,0,0,4.78-2.26,6,6,0,0,0,.66-.93,6.78,6.78,0,0,0,.49-1,7.29,7.29,0,0,0,.49-2.61v-.28a6.46,6.46,0,0,0-2-4.67A6.23,6.23,0,0,0,102,64.4l-8-3.93-3.14-1.54-10-4.9a15.17,15.17,0,0,0,.86-3.72c0-.51.08-1,.08-1.54a15,15,0,0,0-3.38-9.53,13.47,13.47,0,0,0-10.42-5Z"/><path class="cls-1" d="M70.32,41.41c3.06,1.79,4.24,6.07,3.53,9.76"/><line class="cls-1" x1="86.25" y1="93.65" x2="89.67" y2="100.15"/><line class="cls-1" x1="78.54" y1="79.02" x2="84.11" y2="89.58"/><rect class="cls-5" width="442.97" height="143.29"/></g></g></svg>