<svg xmlns="http://www.w3.org/2000/svg" viewBox="0 0 442.97 143.29"><defs><style>.cls-1,.cls-2,.cls-3,.cls-4,.cls-6{fill:none;}.cls-1,.cls-2,.cls-3,.cls-4{stroke:#63d768;stroke-miterlimit:10;}.cls-1,.cls-2,.cls-4{stroke-width:3px;}.cls-2,.cls-3,.cls-4{stroke-linecap:round;}.cls-3{stroke-width:2px;}.cls-4{fill-rule:evenodd;}.cls-5{fill:#63d768;}</style></defs><g id="Layer_2" data-name="Layer 2"><g id="Coin"><path class="cls-1" d="M412.48,107.64H357.57l.77-1.89,2.2-5.39.55-1.35,2.75-6.73,1.1-2.7,2.85-7a26,26,0,0,1-9.27-19.92v0a25.71,25.71,0,0,1,2-9.87,24.29,24.29,0,0,1,1.73-3.46,25.54,25.54,0,0,1,3.12-4.18,26,26,0,0,1,38.45,0,26,26,0,0,1,6.81,17.54,24.72,24.72,0,0,1-.16,2.87,25.39,25.39,0,0,1-1.11,5.18,26.09,26.09,0,0,1-7.48,11.41c-.34.31-.69.6-1,.89l1.48,3.13,1.63,3.43L408.38,99l1.93,4Z"/><line class="cls-2" x1="384.56" y1="107.5" x2="384.56" y2="94.85"/><line class="cls-2" x1="401.58" y1="107.5" x2="395.19" y2="92.56"/><line class="cls-2" x1="373.63" y1="92.83" x2="367.79" y2="107.5"/><rect class="cls-1" x="366.56" y="60.64" width="16.26" height="13.45" rx="3.5"/><rect class="cls-1" x="387.23" y="60.64" width="16.26" height="13.45" rx="3.5"/><path class="cls-1" d="M386.2,86.19l3.08-5.35a2,2,0,0,0-1.7-3H381.4a2,2,0,0,0-1.71,3l3.09,5.35A2,2,0,0,0,386.2,86.19Z"/><path class="cls-2" d="M392.93,43.45C399.31,46,403.14,50.1,404,57.14"/><path class="cls-1" d="M100.58,96.53a6.51,6.51,0,0,1-9.2,9.21Z"/><polyline class="cls-1" points="73.56 71.65 74.21 72.3 80.38 78.47 81.44 79.53 74.37 86.6 66.49 78.72"/><polyline class="cls-1" points="59.42 71.65 40.19 52.42 39.99 51.74 37.82 44.55 37.15 42.31 44.6 44.55 47.26 45.35 53.28 51.37 62.9 60.99 66.49 64.58"/><polyline class="cls-1" points="79.88 89.64 83.1 92.86 85.15 94.91 85.27 95.03 88.35 98.12 88.36 98.12 93.02 102.78 97.62 98.18 94.85 95.41 89.59 90.15 84.48 85.04"/><path class="cls-1" d="M87.42,82.1,76.94,92.58a1.79,1.79,0,0,1-.35.28,2.71,2.71,0,0,1-3.12,0,1.79,1.79,0,0,1-.35-.28L73,92.45a2.73,2.73,0,0,1,0-3.82L83.47,78.15a2.71,2.71,0,0,1,3.82,0l.13.13A2.71,2.71,0,0,1,87.42,82.1Z"/><line class="cls-1" x1="89.59" y1="90.15" x2="83.1" y2="92.86"/><line class="cls-1" x1="94.85" y1="95.41" x2="88.35" y2="98.12"/><line class="cls-3" x1="74.24" y1="77.83" x2="70.81" y2="74.4"/><line class="cls-3" x1="63.74" y1="67.33" x2="55.63" y2="59.23"/><path class="cls-1" d="M41.6,105.74a6.51,6.51,0,0,1-9.2-9.21Z"/><polygon class="cls-1" points="95.82 42.31 95.55 43.19 95.46 43.52 93.61 49.69 92.79 52.42 58.61 86.6 51.54 79.53 52.6 78.47 58.77 72.3 59.42 71.65 66.49 64.58 70.08 60.99 81.38 49.69 85.72 45.35 86.82 45.02 91.8 43.52 95.09 42.53 95.82 42.31"/><polyline class="cls-1" points="48.5 85.04 47.53 86.02 45.84 87.71 45.28 88.26 42.74 90.8 40.02 93.52 35.36 98.18 39.96 102.78 46.58 96.16 47.99 94.75 51.18 91.56 53.1 89.64"/><path class="cls-1" d="M60,92.45l-.13.13a1.79,1.79,0,0,1-.35.28,2.71,2.71,0,0,1-3.12,0,1.79,1.79,0,0,1-.35-.28L45.56,82.1a2.71,2.71,0,0,1-.18-3.63l.18-.19.13-.13a2.71,2.71,0,0,1,3.82,0L60,88.63A2.73,2.73,0,0,1,60,92.45Z"/><line class="cls-1" x1="47.98" y1="94.74" x2="45.28" y2="88.25"/><line class="cls-1" x1="42.72" y1="100" x2="40.02" y2="93.51"/><line class="cls-3" x1="60.63" y1="77.83" x2="79.23" y2="59.23"/><path class="cls-4" d="M234.79,87.22a2.75,2.75,0,0,1,0,.41,1.54,1.54,0,0,1-.31-.27l-2.79-2.79a19.21,19.21,0,0,0,3.12-1.26Z"/><path class="cls-4" d="M245.65,104.88l-2.3.63-3.14-4-1.36-1.75-.25,1.75-.77,5.49-2.49.66-1.65-6.15-1.08-4L231.67,94a8.4,8.4,0,0,0,.8-.78,8.8,8.8,0,0,0,2.3-5.55,8.75,8.75,0,0,0,6,2.33c.3,0,.6,0,.9,0l.58,2.15,1.44,5.39,1.08,4Z"/><path class="cls-4" d="M219.89,93.77l-1,3.68-1.08,4-1.65,6.15-2.31-.62-.51-5.53-.25-2.66-1.88,2.66-2.87,4.06-2.49-.67.91-3.39,1.08-4,1.44-5.39.58-2.15A8.84,8.84,0,0,0,217,87.4a8.6,8.6,0,0,0,1.43,4.66,7,7,0,0,0,.65.89A10.2,10.2,0,0,0,219.89,93.77Z"/><path class="cls-4" d="M219.91,84.5l-2.86,2.86,0,0a.55.55,0,0,1,0-.18V83.31A19.51,19.51,0,0,0,219.91,84.5Z"/><path class="cls-4" d="M234.77,87.63a8.8,8.8,0,0,1-2.3,5.55,8.4,8.4,0,0,1-.8.78,8.77,8.77,0,0,1-5.76,2.15h0a8.9,8.9,0,0,1-6-2.34,10.2,10.2,0,0,1-.79-.82,7,7,0,0,1-.65-.89A8.6,8.6,0,0,1,217,87.4l0,0,2.86-2.86a12.91,12.91,0,0,0,1.35.38c.32.08.64.15,1,.2h0a19.38,19.38,0,0,0,3.68.35,19,19,0,0,0,3.4-.3l1-.2a11.71,11.71,0,0,0,1.41-.37l2.79,2.79A1.54,1.54,0,0,0,234.77,87.63Z"/><path class="cls-4" d="M219.91,84.5l-2.86,2.86,0,0a.55.55,0,0,1,0-.18V83.31A19.51,19.51,0,0,0,219.91,84.5Z"/><path class="cls-4" d="M234.79,83.31v3.91a2.75,2.75,0,0,1,0,.41,1.54,1.54,0,0,1-.31-.27l-2.79-2.79A19.21,19.21,0,0,0,234.79,83.31Z"/><path class="cls-4" d="M234.79,44.49v4c-.28-.15-.57-.29-.86-.42l-.24-.11c-.25-.11-.5-.22-.76-.31l-.05,0c-.29-.12-.6-.22-.9-.32a19.57,19.57,0,0,0-12.38.07l-.7.25a18.08,18.08,0,0,0-1.9.86V44.53a7.77,7.77,0,0,1,.06-1,8.89,8.89,0,0,1,4.43-6.74,8.78,8.78,0,0,1,4.41-1.18h0A8.9,8.9,0,0,1,234.79,44.49Z"/><path class="cls-4" d="M217,87.4a8.84,8.84,0,0,1-7.15,2.51,7.39,7.39,0,0,1-1-.15,8.89,8.89,0,0,1-4.56-14.84h4.2a19.68,19.68,0,0,0,3.15,4.41c.26.28.53.55.81.8l.3.28c.28.25.57.5.86.73s.52.41.79.6.34.25.51.36.38.26.58.38a16,16,0,0,0,1.45.83v3.91A.55.55,0,0,0,217,87.4Z"/><path class="cls-4" d="M208.55,74.92h-4.2l.13-.14L207.3,72c.09.28.19.56.3.83s.12.32.18.47.2.49.32.73.17.37.26.55S208.48,74.79,208.55,74.92Z"/><path class="cls-4" d="M219.91,84.5l-2.86,2.86,0,0a.55.55,0,0,1,0-.18V83.31A19.51,19.51,0,0,0,219.91,84.5Z"/><path class="cls-4" d="M249.84,50.89a8.88,8.88,0,0,1-.69,3.44,8.76,8.76,0,0,1-1.77,2.7l-.1.11,0,0-2.72,2.72a16.72,16.72,0,0,0-1.12-2.77l-.05-.09a17.78,17.78,0,0,0-1.66-2.7c-.22-.31-.46-.61-.7-.9s-.49-.58-.75-.86-.52-.56-.8-.81-.51-.48-.78-.72l-.11-.09-.72-.58-.2-.15-.82-.58,0,0c-.27-.19-.55-.36-.84-.53s-.75-.43-1.14-.63-.57-.29-.86-.42l-.24-.11c-.25-.11-.5-.22-.76-.31l-.05,0c-.29-.12-.6-.22-.9-.32l2.68-2.68a1.27,1.27,0,0,1,.13-.11,8.91,8.91,0,0,1,10.55-1.33,8.66,8.66,0,0,1,1.9,1.44,8.82,8.82,0,0,1,1.3,1.65,9,9,0,0,1,1.3,4.64Z"/><path class="cls-4" d="M208.55,74.92h-4.2a8.74,8.74,0,0,1-1.78-.19h0a8.72,8.72,0,0,1-3.95-2A8.79,8.79,0,0,1,195.52,66h0a8.89,8.89,0,0,1,8.73-8.87h4.15a19.1,19.1,0,0,0-1.2,3A19.59,19.59,0,0,0,207.3,72c.09.28.19.56.3.83s.12.32.18.47.2.49.32.73.17.37.26.55S208.48,74.79,208.55,74.92Z"/><path class="cls-4" d="M256,66h0a8.81,8.81,0,0,1-.57,3.12,8.91,8.91,0,0,1-5.79,5.39,8.57,8.57,0,0,1-2.49.37h-3.88c.16-.32.32-.63.47-1s.17-.38.24-.57c.17-.4.32-.8.45-1.21a18.8,18.8,0,0,0,.76-3,18.58,18.58,0,0,0,.28-3.27,19.11,19.11,0,0,0-.94-6,16.72,16.72,0,0,0-1.12-2.77h3.7a.55.55,0,0,1,.18,0A8.9,8.9,0,0,1,256,66Z"/><path class="cls-4" d="M219.6,47.35l-.7.25a18.08,18.08,0,0,0-1.9.86A19.44,19.44,0,0,0,208.46,57l-.06.11a19.1,19.1,0,0,0-1.2,3l-2.93-2.93,0,0-.11-.12a8.9,8.9,0,0,1-1.84-9.43,8.86,8.86,0,0,1,3.22-4,9,9,0,0,1,10.08,0,8.73,8.73,0,0,1,1.25,1l.15.15Z"/><path class="cls-4" d="M249.15,84a8.87,8.87,0,0,1-6.55,5.79,8,8,0,0,1-1,.15c-.3,0-.6,0-.9,0a8.75,8.75,0,0,1-6-2.33,2.75,2.75,0,0,0,0-.41V83.31a19.7,19.7,0,0,0,3.39-2.2,19.88,19.88,0,0,0,5.08-6.2h3.88A8.93,8.93,0,0,1,249.15,84Z"/><path class="cls-4" d="M234.79,83.31v3.91a2.75,2.75,0,0,1,0,.41,1.54,1.54,0,0,1-.31-.27l-2.79-2.79A19.21,19.21,0,0,0,234.79,83.31Z"/><path class="cls-4" d="M247.14,74.91h-3.88c.16-.32.32-.63.47-1s.17-.38.24-.57c.17-.4.32-.8.45-1.21L247,74.78A1.27,1.27,0,0,1,247.14,74.91Z"/><path class="cls-4" d="M219.91,84.5l-2.86,2.86,0,0a.55.55,0,0,1,0-.18V83.31A19.51,19.51,0,0,0,219.91,84.5Z"/><path class="cls-4" d="M234.79,83.31v3.91a2.75,2.75,0,0,1,0,.41,1.54,1.54,0,0,1-.31-.27l-2.79-2.79A19.21,19.21,0,0,0,234.79,83.31Z"/><path class="cls-4" d="M219.91,84.5l-2.86,2.86,0,0a.55.55,0,0,1,0-.18V83.31A19.51,19.51,0,0,0,219.91,84.5Z"/><path class="cls-4" d="M234.79,83.31v3.91a2.75,2.75,0,0,1,0,.41,1.54,1.54,0,0,1-.31-.27l-2.79-2.79A19.21,19.21,0,0,0,234.79,83.31Z"/><path class="cls-4" d="M208.55,74.92h-4.2l.13-.14L207.3,72c.09.28.19.56.3.83s.12.32.18.47.2.49.32.73.17.37.26.55S208.48,74.79,208.55,74.92Z"/><path class="cls-4" d="M219.91,84.5l-2.86,2.86,0,0a.55.55,0,0,1,0-.18V83.31A19.51,19.51,0,0,0,219.91,84.5Z"/><path class="cls-4" d="M234.79,83.31v3.91a2.75,2.75,0,0,1,0,.41,1.54,1.54,0,0,1-.31-.27l-2.79-2.79A19.21,19.21,0,0,0,234.79,83.31Z"/><path class="cls-4" d="M247.14,74.91h-3.88c.16-.32.32-.63.47-1s.17-.38.24-.57c.17-.4.32-.8.45-1.21L247,74.78A1.27,1.27,0,0,1,247.14,74.91Z"/><path class="cls-4" d="M219.91,84.5l-2.86,2.86,0,0a.55.55,0,0,1,0-.18V83.31A19.51,19.51,0,0,0,219.91,84.5Z"/><path class="cls-4" d="M234.79,83.31v3.91a2.75,2.75,0,0,1,0,.41,1.54,1.54,0,0,1-.31-.27l-2.79-2.79A19.21,19.21,0,0,0,234.79,83.31Z"/><path class="cls-5" d="M227.84,76V52.19h-7.42v3.26h3.71V76h-3.71v3.3h11V76Z"/><path class="cls-5" d="M231.37,79.3h-11V76h3.71V55.45h-3.71V52.19h7.42V76h3.53Z"/><rect class="cls-6" width="442.97" height="143.29"/></g></g></svg>