<svg xmlns="http://www.w3.org/2000/svg" viewBox="0 0 312.45 94.13"><defs><style>.cls-1,.cls-2,.cls-5{fill:none;}.cls-1,.cls-2,.cls-4{stroke:#edf2f7;stroke-miterlimit:10;}.cls-1,.cls-2{stroke-width:3px;}.cls-2{stroke-linecap:round;}.cls-3,.cls-4{fill:#edf2f7;}</style></defs><g id="Layer_2" data-name="Layer 2"><g id="Coin"><path class="cls-1" d="M285.78,21.36a11.75,11.75,0,0,1-4.32-4.67A10.89,10.89,0,0,1,280.25,12c0-.13,0-.25,0-.38H243.16A11.23,11.23,0,0,1,240.38,19a12.29,12.29,0,0,1-5.15,3.5,12.82,12.82,0,0,1-4.28.73V58.7L233.39,61l4.91,4.67,4.29,4.08,8,7.59,2.59,2.45L256,82.49h11.45l2.94-2.8,2.46-2.33,8.58-8.17c3.35-3.17,6.79-6.44,11.05-10.49V23.25A12.52,12.52,0,0,1,285.78,21.36Zm.44,23.33H264.08m-6.31,0h-21.1m21.1-5h-21.1m49.55,0H264.08"/><path class="cls-1" d="M285.78,21.36a11.75,11.75,0,0,1-4.32-4.67A10.89,10.89,0,0,1,280.25,12c0-.13,0-.25,0-.38H243.16A11.23,11.23,0,0,1,240.38,19a12.29,12.29,0,0,1-5.15,3.5,12.82,12.82,0,0,1-4.28.73V58.7L233.39,61l4.91,4.67,4.29,4.08,8,7.59,2.59,2.45L256,82.49h11.45l2.94-2.8,2.46-2.33,8.58-8.17c3.35-3.17,6.79-6.44,11.05-10.49V23.25A12.52,12.52,0,0,1,285.78,21.36Zm.44,23.33H264.08m-6.31,0h-21.1m21.1-5h-21.1m49.55,0H264.08"/><path class="cls-2" d="M257.77,18.55V39.69h-21.1V29.42a10.65,10.65,0,0,0,10.4-10.87Z"/><path class="cls-2" d="M236.67,44.69h21.1V75.58l-21.1-22Z"/><path class="cls-2" d="M286.22,29.42V39.69H264.08V18.55h11.23A10.9,10.9,0,0,0,286.22,29.42Z"/><path class="cls-2" d="M264.08,44.69h22.14v8.84l-22.14,22Z"/><path class="cls-3" d="M141.82,20.35c-.29,1.16-.58,2.35-.95,3.38s-.61,2.08-.92,2.91-.48,1.58-.67,2.07-.29.78-.29.78a7.5,7.5,0,0,1-1.24-1.88,10.32,10.32,0,0,1-.83-2.39,10.6,10.6,0,0,1-.08-3.32,15.43,15.43,0,0,1,3-7,16.54,16.54,0,0,1,1.88-2.15c.5-.51.82-.79.82-.79a13,13,0,0,1,.13,2.44,21.38,21.38,0,0,1-.25,2.62A21.72,21.72,0,0,1,141.82,20.35Z"/><path class="cls-3" d="M146.37,29.3c1.9-.38,3.56-.87,4.74-1.22.57-.22,1.09-.29,1.4-.42a5.06,5.06,0,0,0,.5-.19,8.36,8.36,0,0,0-1.7-1.27,9.64,9.64,0,0,0-2.07-.9,8.92,8.92,0,0,0-2.77-.21,10.16,10.16,0,0,0-2.95.84,15.79,15.79,0,0,0-2.41,1.51,14,14,0,0,0-1.53,1.45c-.37.38-.57.62-.57.62a15,15,0,0,0,2.27.22,21.23,21.23,0,0,0,2.32-.08A21.85,21.85,0,0,0,146.37,29.3Z"/><path class="cls-3" d="M134.32,32c.24,1.17.32,2.32.47,3.43s.13,2.11.23,3,.09,1.63.09,2.16,0,.83,0,.83-.21-.1-.55-.31a7.87,7.87,0,0,1-1.31-1,10.07,10.07,0,0,1-1.6-1.9,9.49,9.49,0,0,1-1.34-3,16,16,0,0,1-.07-7.27c.24-1.06.5-2,.7-2.6s.41-1,.41-1a5.86,5.86,0,0,1,.35.53c.22.35.48.86.81,1.53a17.77,17.77,0,0,1,1,2.43C133.81,29.76,134.07,30.8,134.32,32Z"/><path class="cls-3" d="M142,38.51a35.31,35.31,0,0,0,4-3.22,12.41,12.41,0,0,0,1.14-1.11l.44-.41s-.21-.07-.58-.16a9.37,9.37,0,0,0-1.56-.23,9.57,9.57,0,0,0-2.25.15,7.61,7.61,0,0,0-2.65,1,9.59,9.59,0,0,0-2.41,1.95,12.25,12.25,0,0,0-1.68,2.29c-.41.74-.73,1.41-.94,1.89a4.26,4.26,0,0,0-.27.78s.22,0,.59-.12.91-.25,1.57-.48a18.82,18.82,0,0,0,2.18-.9C140.3,39.51,141.1,39,142,38.51Z"/><path class="cls-3" d="M131.62,45.3c.3.5.57,1,.82,1.53s.54,1,.77,1.51c.48,1,.8,1.93,1.19,2.74s.62,1.51.79,2c.08.25.17.44.22.57l.08.2a4.72,4.72,0,0,1-.61-.11,8.38,8.38,0,0,1-1.58-.52A10.19,10.19,0,0,1,131.18,52a9.61,9.61,0,0,1-2.24-2.36,13.47,13.47,0,0,1-1.68-3.32,21.89,21.89,0,0,1-.85-3.37,29.31,29.31,0,0,1-.24-3.62A11.2,11.2,0,0,1,128,40.76,22.44,22.44,0,0,1,131.62,45.3Z"/><path class="cls-3" d="M141,48.9a28.17,28.17,0,0,0,2.66-4.46,12.54,12.54,0,0,0,.95-2.07,8.54,8.54,0,0,0-2.1.43,9.06,9.06,0,0,0-4.24,2.78,13,13,0,0,0-.94,1.27,11,11,0,0,0-.68,1.38,12.28,12.28,0,0,0-.84,2.71c-.15.83-.23,1.56-.28,2.09a4.2,4.2,0,0,0,0,.6v.22s.2-.11.52-.32.78-.52,1.33-1A18,18,0,0,0,139.14,51,27.53,27.53,0,0,0,141,48.9Z"/><path class="cls-3" d="M133.43,58.69c.45.38.87.77,1.27,1.17s.85.78,1.24,1.17.74.77,1.07,1.14.7.71,1,1l2,2.2a8.3,8.3,0,0,1-2.28.19,9.32,9.32,0,0,1-2.44-.46,10.48,10.48,0,0,1-2.94-1.47,14.19,14.19,0,0,1-2.7-2.61,22.51,22.51,0,0,1-1.92-2.93,27.31,27.31,0,0,1-1.4-3.36,11.74,11.74,0,0,1,2.24.8A22.48,22.48,0,0,1,133.43,58.69Z"/><path class="cls-3" d="M143.44,58.92a21.34,21.34,0,0,0,.69-2.69,20.74,20.74,0,0,0,.39-2.29,12.12,12.12,0,0,0,.23-2.24,8.89,8.89,0,0,0-1.86,1.08,9.07,9.07,0,0,0-3.1,4,11.33,11.33,0,0,0-.47,1.5,13,13,0,0,0-.18,1.51,14.79,14.79,0,0,0,0,1.48c0,.46.1.91.17,1.33a11.25,11.25,0,0,0,.46,2c.17.48.29.76.29.76a13.3,13.3,0,0,0,1.28-1.82c.32-.57.75-1.29,1.12-2.07A22.94,22.94,0,0,0,143.44,58.92Z"/><path class="cls-3" d="M139.83,70.68a29.44,29.44,0,0,1,3.23,1.23c1.05.38,2,.79,2.78,1.15s1.51.6,2,.81a6.91,6.91,0,0,0,.75.33,6.93,6.93,0,0,1-2,1.13,9.43,9.43,0,0,1-5.76.41,15.51,15.51,0,0,1-6.53-3.53,14.44,14.44,0,0,1-1.89-1.9c-.44-.5-.68-.81-.68-.81a11.3,11.3,0,0,1,2.38,0,23.12,23.12,0,0,1,2.55.36A21.82,21.82,0,0,1,139.83,70.68Z"/><path class="cls-3" d="M149.12,67a35.1,35.1,0,0,0-.71-4.79c-.17-.59-.25-1.15-.35-1.5s-.16-.56-.16-.56a8.79,8.79,0,0,0-1.38,1.65A8.61,8.61,0,0,0,145,66.51a10.89,10.89,0,0,0,.51,3A17.49,17.49,0,0,0,146.73,72,19.44,19.44,0,0,0,148,73.59a3.26,3.26,0,0,0,.57.58A18.73,18.73,0,0,0,149,72,30.31,30.31,0,0,0,149.12,67Z"/><path class="cls-3" d="M150.89,79c1.16-.13,2.39-.4,3.46-.49s2.12-.34,3-.42,1.59-.3,2.09-.37l.8-.1a6.68,6.68,0,0,1-1,2,9.54,9.54,0,0,1-1.76,1.84,9.91,9.91,0,0,1-3,1.53,13.59,13.59,0,0,1-4,.5,21.49,21.49,0,0,1-3.77-.55c-1.1-.32-2-.68-2.69-.94a6.68,6.68,0,0,1-1-.48,13.8,13.8,0,0,1,2.19-1A32.65,32.65,0,0,1,150.89,79Z"/><path class="cls-3" d="M157,71.14c-.25-.34-.47-.75-.7-1.1a11.16,11.16,0,0,0-.66-1,15.62,15.62,0,0,0-1.13-1.6A14.37,14.37,0,0,0,153.42,66a8.72,8.72,0,0,0-.59,2,7.68,7.68,0,0,0,.62,4.78,7.79,7.79,0,0,0,1.8,2.33,11.55,11.55,0,0,0,2.27,1.5,13.24,13.24,0,0,0,1.92.69c.49.14.78.2.78.2a17.17,17.17,0,0,0-.85-2.1c-.28-.61-.63-1.31-1-2S157.51,71.86,157,71.14Z"/><path class="cls-3" d="M152,19.67l-8.34,3.7.07-.2a2.94,2.94,0,0,1,.23-.54A18,18,0,0,1,145,20.76a16.28,16.28,0,0,1,2.08-2.42c.46-.39,1-.77,1.51-1.15.27-.18.54-.38.84-.55l.93-.45a12.49,12.49,0,0,1,1.92-.72c.64-.15,1.27-.27,1.87-.36a15.67,15.67,0,0,1,3.22,0,15.5,15.5,0,0,1,2.86.77s-1.06.53-2.61,1.14S154.08,18.62,152,19.67Z"/><path class="cls-3" d="M178.89,25.64a9.82,9.82,0,0,1,2.9.78,15.69,15.69,0,0,1,2.37,1.45,17.26,17.26,0,0,1,1.51,1.41c.35.37.55.6.55.6a14.64,14.64,0,0,1-2.25.24,20.36,20.36,0,0,1-2.31,0,24.82,24.82,0,0,1-2.73-.31,46.82,46.82,0,0,1-4.64-1.11c-.55-.2-1-.26-1.35-.38s-.48-.17-.48-.17a8.26,8.26,0,0,1,1.67-1.29,9.27,9.27,0,0,1,2-.92A8.53,8.53,0,0,1,178.89,25.64Z"/><path class="cls-3" d="M188.46,22.37a15.15,15.15,0,0,0-2.9-6.85,16.66,16.66,0,0,0-1.83-2.11c-.49-.5-.8-.78-.8-.78a12.69,12.69,0,0,0-.15,2.42,20.21,20.21,0,0,0,.21,2.6,22.88,22.88,0,0,0,.55,3.24,32.14,32.14,0,0,0,.9,3.33c.3,1.06.58,2,.88,2.85s.46,1.55.64,2,.28.77.28.77A7.9,7.9,0,0,0,187.5,28a10.56,10.56,0,0,0,.84-2.35A10.54,10.54,0,0,0,188.46,22.37Z"/><path class="cls-3" d="M185,34.67a9.31,9.31,0,0,1,2.39,1.91,11.41,11.41,0,0,1,1.67,2.26c.41.73.73,1.39.94,1.86a5.74,5.74,0,0,1,.27.77s-.22,0-.6-.12-.9-.25-1.56-.47a18.63,18.63,0,0,1-2.18-.89,25.69,25.69,0,0,1-2.43-1.36,34.19,34.19,0,0,1-4-3.14,13.77,13.77,0,0,1-1.13-1.09L178,34s.21-.07.58-.16a9.22,9.22,0,0,1,1.56-.24,9.41,9.41,0,0,1,2.24.13A7.58,7.58,0,0,1,185,34.67Z"/><path class="cls-3" d="M195.11,35.32a15.72,15.72,0,0,0,.09-7.21c-.23-1-.49-1.93-.69-2.56s-.39-1-.39-1a4.61,4.61,0,0,0-.36.53c-.22.35-.48.85-.82,1.52A19.39,19.39,0,0,0,192,29c-.3.92-.56,2-.82,3.13s-.32,2.29-.48,3.39-.13,2.08-.24,3-.09,1.61-.1,2.12,0,.83,0,.83.2-.1.54-.31a8.15,8.15,0,0,0,1.32-1,9.87,9.87,0,0,0,1.6-1.88A9.65,9.65,0,0,0,195.11,35.32Z"/><path class="cls-3" d="M187.49,45.59a9.86,9.86,0,0,1,.93,1.27,8.63,8.63,0,0,1,.68,1.36,12.27,12.27,0,0,1,.85,2.7,20.93,20.93,0,0,1,.27,2.08,4.52,4.52,0,0,1,0,.6c0,.14,0,.22,0,.22a5.74,5.74,0,0,1-.52-.31c-.33-.21-.78-.53-1.33-.95A19.42,19.42,0,0,1,186.61,51a25.31,25.31,0,0,1-1.85-2.11,27.79,27.79,0,0,1-2.67-4.44,12.22,12.22,0,0,1-.94-2.06,9.17,9.17,0,0,1,2.1.43A9,9,0,0,1,187.49,45.59Z"/><path class="cls-3" d="M196.81,49.58a13.37,13.37,0,0,0,1.67-3.31,21.78,21.78,0,0,0,.85-3.36,26.91,26.91,0,0,0,.24-3.61,12.18,12.18,0,0,0-1.86,1.48,22.27,22.27,0,0,0-3.58,4.53,15,15,0,0,0-.82,1.52c-.25.5-.54,1-.77,1.5-.48,1-.81,1.93-1.2,2.74s-.61,1.5-.78,2c-.08.25-.17.44-.22.57l-.08.2a5.07,5.07,0,0,0,.61-.11,7.46,7.46,0,0,0,1.57-.52,9.73,9.73,0,0,0,2.13-1.26A9.56,9.56,0,0,0,196.81,49.58Z"/><path class="cls-3" d="M186.26,56.81a12.45,12.45,0,0,1,.47,1.5,12.92,12.92,0,0,1,.17,1.51c0,.51,0,1,0,1.49s-.1.92-.17,1.34a12,12,0,0,1-.47,2c-.17.49-.29.77-.29.77a13.64,13.64,0,0,1-1.27-1.83c-.33-.56-.75-1.29-1.12-2.07a23.12,23.12,0,0,1-1-2.58,21.47,21.47,0,0,1-.69-2.7,23.27,23.27,0,0,1-.38-2.3,12.32,12.32,0,0,1-.23-2.26,9.29,9.29,0,0,1,1.86,1.09A9.14,9.14,0,0,1,186.26,56.81Z"/><path class="cls-3" d="M193.7,63.72a14.93,14.93,0,0,0,2.71-2.62,23,23,0,0,0,1.92-3,27.31,27.31,0,0,0,1.4-3.36,11.74,11.74,0,0,0-2.24.8,22.59,22.59,0,0,0-4.87,3.14c-.45.38-.88.78-1.28,1.18s-.85.79-1.24,1.18-.74.77-1.07,1.15-.7.7-1,1l-2,2.21a8.15,8.15,0,0,0,2.29.18,8.57,8.57,0,0,0,2.44-.46A10.27,10.27,0,0,0,193.7,63.72Z"/><path class="cls-3" d="M181.26,66.8a11.48,11.48,0,0,1-.54,3,16,16,0,0,1-1.26,2.52c-.49.68-1,1.25-1.31,1.64a3.64,3.64,0,0,1-.59.59,17.26,17.26,0,0,1-.37-2.23,28.22,28.22,0,0,1-.09-5,37.36,37.36,0,0,1,.76-4.86c.18-.6.26-1.16.37-1.52a4.66,4.66,0,0,1,.17-.57A8.9,8.9,0,0,1,179.77,62a9,9,0,0,1,1,2A9.36,9.36,0,0,1,181.26,66.8Z"/><path class="cls-3" d="M185.36,76.07A15.71,15.71,0,0,0,192,72.48a14.71,14.71,0,0,0,1.91-1.93c.44-.5.69-.82.69-.82a12,12,0,0,0-2.39,0,23.71,23.71,0,0,0-2.56.39,19.6,19.6,0,0,0-3.17.86,31,31,0,0,0-3.27,1.26c-1.06.4-2,.82-2.81,1.19s-1.53.61-2,.83a7,7,0,0,1-.77.33,6.65,6.65,0,0,0,2,1.12A9.5,9.5,0,0,0,185.36,76.07Z"/><path class="cls-3" d="M172.74,73.53a8.2,8.2,0,0,1-1.89,2.36,11.75,11.75,0,0,1-2.36,1.52,12.3,12.3,0,0,1-2,.69l-.81.21a16.91,16.91,0,0,1,.88-2.1c.3-.62.67-1.31,1.09-2s.87-1.57,1.38-2.3c.26-.35.5-.76.74-1.11s.48-.68.71-1a17.49,17.49,0,0,1,1.22-1.64,15,15,0,0,1,1.21-1.53,8.21,8.21,0,0,1,.57,2A7.69,7.69,0,0,1,172.74,73.53Z"/><path class="cls-3" d="M171.68,83.67a14.2,14.2,0,0,0,4.09.47,23.62,23.62,0,0,0,3.87-.59,28.56,28.56,0,0,0,2.74-1,6.44,6.44,0,0,0,1-.48,13.07,13.07,0,0,0-2.22-1,32.09,32.09,0,0,0-5.88-1.42c-1.19-.12-2.45-.38-3.56-.46s-2.19-.33-3.07-.4-1.65-.3-2.17-.36-.83-.1-.83-.1a6.76,6.76,0,0,0,1.07,2,9.64,9.64,0,0,0,1.81,1.83A10.31,10.31,0,0,0,171.68,83.67Z"/><path class="cls-3" d="M175.29,16.75c.31.14.62.28.91.43s.56.36.82.55c.53.37,1,.74,1.47,1.12a16.78,16.78,0,0,1,2,2.38c.47.76.81,1.39,1,1.83a2.77,2.77,0,0,1,.22.54l.07.19-8.16-3.56c-2.05-1-4-1.85-5.47-2.61-1.5-.59-2.53-1.13-2.53-1.13a14.7,14.7,0,0,1,2.78-.77,15.37,15.37,0,0,1,3.13,0c.59.09,1.2.2,1.83.35A10.63,10.63,0,0,1,175.29,16.75Z"/><path class="cls-4" d="M155.65,57.19l-5.26-14.9h-1.94v-2.1h6.18v2.1h-1.81l4,11.3,3.88-11.3h-1.83v-2.1h6v2.1H163l-5.15,14.9Z"/><path class="cls-4" d="M167.25,54.91V42.29h-2v-2.1h5.6a13.58,13.58,0,0,1,3.69.37,3.71,3.71,0,0,1,2.05,1.7A6.32,6.32,0,0,1,176.9,48a4,4,0,0,1-1.35,1.69,4.67,4.67,0,0,1-1.81.73,17.51,17.51,0,0,1-3,.19h-1.09v4.33h2V57h-6.36V54.91Zm2.36-6.36H171a5.31,5.31,0,0,0,3.19-.71,3,3,0,0,0,.89-2.5,3.53,3.53,0,0,0-.47-1.89,2.12,2.12,0,0,0-1.17-1,9,9,0,0,0-2.33-.21h-1.47Z"/><path class="cls-3" d="M57.48,12.64a10.51,10.51,0,0,1,8.1,3.92,12,12,0,0,1,2.7,7.63,11,11,0,0,1-.07,1.24,11.94,11.94,0,0,1-.69,3L66.59,31,69,32.14,79,37l3.14,1.54,8,3.92a3.33,3.33,0,0,1,.78.55,3.48,3.48,0,0,1,1,2.51v.28a4.15,4.15,0,0,1-.28,1.5,3.48,3.48,0,0,1-.26.51l0,0,0,0a3,3,0,0,1-.36.5,3.22,3.22,0,0,1-2.48,1.19h-.14l-13.64.62-4.8.22,2.31,4.22L75.4,60.4l4.43,8.08,0,0,0,.06,4.77,7.92,2.6,4.3.4.68H70.84a.26.26,0,0,1-.19-.08l0,0,0,0,0-.09-4.23-7.74-2-3.68-2.68-4.9-.11-.2a4.52,4.52,0,0,0-8,0l0,0v0l-.07.13-2.7,4.93-2,3.69-4.25,7.76s0,0,0,0l0,0-.05,0a.25.25,0,0,1-.18.08H27.29l.28-.47,5-8.2,2.55-4.23,0-.06,0-.06.37-.69,4.14-7.55,3.05-5.58L45,50.42l-4.81-.21L34.37,50l-7.81-.34h-.13a3.26,3.26,0,0,1-2.5-1.21A3.93,3.93,0,0,1,23,45.84v-.28a3.56,3.56,0,0,1,1.8-3.05L36,37l10-4.9L48.35,31l-.92-2.53a12,12,0,0,1-.69-3,11,11,0,0,1-.07-1.24,12.26,12.26,0,0,1,.12-1.73,12.06,12.06,0,0,1,1.86-4.94,9.48,9.48,0,0,1,.72-.95,10.5,10.5,0,0,1,8.11-3.93m0-3a13.49,13.49,0,0,0-10.43,5,12.21,12.21,0,0,0-.91,1.23A14.88,14.88,0,0,0,43.82,22a15.22,15.22,0,0,0-.15,2.15c0,.52,0,1,.08,1.54a15.28,15.28,0,0,0,.86,3.72l-10,4.9L23.48,39.82a6.26,6.26,0,0,0-3.33,4.37A6.19,6.19,0,0,0,20,45.56v.28a7,7,0,0,0,1.64,4.51,6.25,6.25,0,0,0,4.79,2.26l7.81.34,5.83.26-3,5.58-4.14,7.55-.38.7L30,71.27,25,79.47l-.56.93a2.67,2.67,0,0,0,2.14,4.09H44.12a3.26,3.26,0,0,0,2.27-.92,3.17,3.17,0,0,0,.69-.88L51.31,75l2-3.69L56,66.34l.09-.17a1.52,1.52,0,0,1,2.71,0l.09.17,2.7,4.93,2,3.69,4.23,7.73a3.14,3.14,0,0,0,.68.88,3.27,3.27,0,0,0,2.28.92H88.37a2.67,2.67,0,0,0,2.14-4.09l-.68-1.13L87.23,75,82.46,67,78,59l-3.14-5.73,13.64-.62a6.23,6.23,0,0,0,4.78-2.26,6,6,0,0,0,.66-.93,6.78,6.78,0,0,0,.49-1A7.29,7.29,0,0,0,95,45.84v-.28a6.46,6.46,0,0,0-2-4.67,6.23,6.23,0,0,0-1.52-1.07l-8-3.93-3.14-1.54-10-4.9a15.17,15.17,0,0,0,.86-3.72c0-.51.08-1,.08-1.54a15,15,0,0,0-3.38-9.53,13.47,13.47,0,0,0-10.42-5Z"/><path class="cls-2" d="M59.83,16.83c3.06,1.79,4.24,6.06,3.53,9.76"/><line class="cls-2" x1="75.76" y1="69.07" x2="79.18" y2="75.56"/><line class="cls-2" x1="68.05" y1="54.43" x2="73.62" y2="65"/><rect class="cls-5" width="312.45" height="94.13"/></g></g></svg>