<svg xmlns="http://www.w3.org/2000/svg" viewBox="0 0 312.45 94.13"><defs><style>.cls-1,.cls-2,.cls-3,.cls-4,.cls-5{fill:none;}.cls-1,.cls-2,.cls-3,.cls-4{stroke:#edf2f7;stroke-miterlimit:10;}.cls-1,.cls-2{stroke-width:3px;}.cls-2{stroke-linecap:round;}.cls-3{stroke-width:3.73px;}.cls-4{stroke-width:3.8px;}</style></defs><g id="Layer_2" data-name="Layer 2"><g id="Coin"><path class="cls-1" d="M292.51,33.56a22.45,22.45,0,0,1-3.74,12.54A20,20,0,0,1,287,48.43l-2.44,2.69-.32.35-.32.36-1.58,1.75h-3V43.08h-14v10.5h-10.5v14h10.5v4.83l-.58.64-1.82,2-1.83,2-4,4.47-1.52-1.68-6.17-6.83-6.09-6.74-2.43-2.69L230.15,51.83l-.31-.34-2.77-3.06a21.19,21.19,0,0,1-1.82-2.33,22.75,22.75,0,0,1,1.44-26.94l.38-.45a17.75,17.75,0,0,1,26.87,0l.41.45L257,22.11l2.66-2.95.41-.45a17.66,17.66,0,0,1,23.27-3.12,19.8,19.8,0,0,1,3.6,3.12A20.63,20.63,0,0,1,290,23.2,22.13,22.13,0,0,1,292,28.59,23.85,23.85,0,0,1,292.51,33.56Z"/><path class="cls-2" d="M286.33,40.16a10.46,10.46,0,0,1-.53,1.64,9.75,9.75,0,0,1-1.75,2.77"/><path class="cls-2" d="M272.28,18.15a15.31,15.31,0,0,1,9.89,5.1,18.62,18.62,0,0,1,4.67,12.48"/><polygon class="cls-1" points="289.78 53.58 289.78 67.58 279.28 67.58 279.28 78.08 265.28 78.08 265.28 67.58 254.78 67.58 254.78 53.58 265.28 53.58 265.28 43.08 279.28 43.08 279.28 53.58 289.78 53.58"/><path class="cls-1" d="M184.69,56.31a25.24,25.24,0,0,1-10.64,20.58,24.39,24.39,0,0,1-3.65,2.17,25.3,25.3,0,0,1-19.82.9,24.83,24.83,0,0,1-4.21-2c-.53-.32-1-.65-1.54-1a22.72,22.72,0,0,1-2.65-2.16,23.78,23.78,0,0,1-2-2.11,25.14,25.14,0,0,1-4-6.56,23.71,23.71,0,0,1-1.37-4.33,24.87,24.87,0,0,1-.59-5.42,25.22,25.22,0,0,1,1.53-8.67,25.17,25.17,0,0,1,12-13.7l.75-.38a24.83,24.83,0,0,1,4.74-1.73l0-.44L152.62,26l-.31-3.25-.53-5.42-.1-1.08-.36-3.67h16.24l-.36,3.67L166.26,26l-.53,5.41,0,.44a24.83,24.83,0,0,1,4.74,1.73,25.35,25.35,0,0,1,10.66,9.75,25.2,25.2,0,0,1,3.58,11.92C184.68,55.59,184.69,56,184.69,56.31Z"/><path class="cls-2" d="M167.08,37.5a20.05,20.05,0,0,1,11.16,11.26"/><path class="cls-1" d="M139.53,54.05a20.39,20.39,0,0,0-.16,2.48,20.07,20.07,0,0,0,40.14,0,20.39,20.39,0,0,0-.16-2.48C164.42,56.88,146.8,47.21,139.53,54.05Z"/><circle class="cls-1" cx="148.16" cy="59.46" r="2.71"/><circle class="cls-1" cx="164.4" cy="66.68" r="4.51"/><path class="cls-1" d="M88.25,20.84v9.52H62V22H47.78v8.36H20.44V20.84a9.12,9.12,0,0,1,5.67-8.43,9.92,9.92,0,0,1,4.05-.85H78.53a9.79,9.79,0,0,1,8.57,4.89A9,9,0,0,1,88.25,20.84Z"/><path class="cls-1" d="M89.35,36.59v46h-70v-46H47.78v7.33a12.39,12.39,0,0,0-2.19,1.82,11.76,11.76,0,0,0-3,5.39,11.45,11.45,0,0,0-.32,2.69,11.62,11.62,0,0,0,2.16,6.74,12.85,12.85,0,0,0,20.77,0,11.46,11.46,0,0,0,2.22-7,10.73,10.73,0,0,0-.32-2.48,11.67,11.67,0,0,0-3-5.39A12.83,12.83,0,0,0,62,43.92V36.59Z"/><path class="cls-1" d="M89.35,65.32V82.56H74.94a14.12,14.12,0,0,1-.36-3.14,11.9,11.9,0,0,1,.07-1.34C75.35,70.92,81.66,65.32,89.35,65.32Z"/><path class="cls-1" d="M35.21,79.42a14.74,14.74,0,0,1-.36,3.14H19.35V65.36c.36,0,.72,0,1.09,0A15.09,15.09,0,0,1,30,68.65,14,14,0,0,1,34.09,74a13.45,13.45,0,0,1,1,4A11.9,11.9,0,0,1,35.21,79.42Z"/><line class="cls-3" x1="76.85" y1="30.36" x2="76.85" y2="11.56"/><line class="cls-3" x1="68.85" y1="30.36" x2="68.85" y2="11.56"/><rect class="cls-1" x="47.78" y="22" width="14.22" height="8.36"/><polyline class="cls-1" points="47.78 43.92 47.78 36.59 62 36.59 62 43.92"/><path class="cls-2" d="M47.78,43.92a12.39,12.39,0,0,0-2.19,1.82,11.76,11.76,0,0,0-3,5.39,11.45,11.45,0,0,0-.32,2.69,11.62,11.62,0,0,0,2.16,6.74,12.85,12.85,0,0,0,20.77,0,11.46,11.46,0,0,0,2.22-7,10.73,10.73,0,0,0-.32-2.48,11.67,11.67,0,0,0-3-5.39A12.83,12.83,0,0,0,62,43.92M59.27,58.13l-1.84-6.55a3,3,0,0,0,.35-.45,2.54,2.54,0,0,0,.16-.28,1,1,0,0,0,.09-.21l0,0a2.38,2.38,0,0,0,.15-.52.58.58,0,0,0,0-.19,2.56,2.56,0,0,0,0-.39,3.26,3.26,0,0,0-6.52,0,3.13,3.13,0,0,0,.08.66.85.85,0,0,0,0,.17,1.66,1.66,0,0,0,.12.31,1,1,0,0,0,.09.21,2.54,2.54,0,0,0,.16.28,3.94,3.94,0,0,0,.36.45l-1.85,6.55Z"/><line class="cls-4" x1="40.85" y1="30.36" x2="40.85" y2="11.56"/><line class="cls-4" x1="32.85" y1="30.36" x2="32.85" y2="11.56"/><rect class="cls-5" width="312.45" height="94.13"/></g></g></svg>