<svg xmlns="http://www.w3.org/2000/svg" viewBox="0 0 442.97 143.29"><defs><style>.cls-1,.cls-2,.cls-3,.cls-4,.cls-5{fill:none;}.cls-1,.cls-2,.cls-3,.cls-4{stroke:#63d768;stroke-miterlimit:10;}.cls-1,.cls-2{stroke-width:3px;}.cls-2{stroke-linecap:round;}.cls-3{stroke-width:3.73px;}.cls-4{stroke-width:3.8px;}</style></defs><g id="Layer_2" data-name="Layer 2"><g id="Coin"><path class="cls-1" d="M412.78,58.71A22.45,22.45,0,0,1,409,71.25a20,20,0,0,1-1.82,2.33l-2.44,2.69-.32.35-.32.36-1.58,1.75h-3V68.23h-14v10.5h-10.5v14h10.5v4.83l-.58.64-1.82,2-1.83,2-4,4.47L375.76,105l-6.17-6.83-6.09-6.74-2.43-2.69L350.42,77l-.31-.34-2.77-3.06a21.19,21.19,0,0,1-1.82-2.33A22.75,22.75,0,0,1,347,44.31l.38-.45a17.75,17.75,0,0,1,26.87,0l.41.45,2.66,2.95,2.66-2.95.41-.45a17.66,17.66,0,0,1,23.27-3.12,19.8,19.8,0,0,1,3.6,3.12,20.63,20.63,0,0,1,3.09,4.49,22.13,22.13,0,0,1,1.94,5.39A23.85,23.85,0,0,1,412.78,58.71Z"/><path class="cls-2" d="M406.6,65.31a10.46,10.46,0,0,1-.53,1.64,9.56,9.56,0,0,1-1.75,2.76"/><path class="cls-2" d="M392.55,43.3a15.31,15.31,0,0,1,9.88,5.1,18.57,18.57,0,0,1,4.67,12.48"/><polygon class="cls-1" points="410.05 78.73 410.05 92.73 399.55 92.73 399.55 103.23 385.55 103.23 385.55 92.73 375.05 92.73 375.05 78.73 385.55 78.73 385.55 68.23 399.55 68.23 399.55 78.73 410.05 78.73"/><path class="cls-1" d="M247.75,80.23a25.24,25.24,0,0,1-10.64,20.58,24.39,24.39,0,0,1-3.65,2.17,25.3,25.3,0,0,1-19.82.9,24.83,24.83,0,0,1-4.21-2c-.53-.32-1-.65-1.54-1a22.72,22.72,0,0,1-2.65-2.16,23.78,23.78,0,0,1-2-2.11,25.14,25.14,0,0,1-4-6.56,23.71,23.71,0,0,1-1.37-4.33,24.87,24.87,0,0,1-.59-5.42,25.22,25.22,0,0,1,1.53-8.67,25.17,25.17,0,0,1,12-13.7l.75-.38a24.83,24.83,0,0,1,4.74-1.73l0-.44-.53-5.41-.31-3.25-.53-5.42-.1-1.08-.36-3.67h16.24l-.36,3.67-.94,9.75-.53,5.41,0,.44a24.83,24.83,0,0,1,4.74,1.73,25.35,25.35,0,0,1,10.66,9.75,25.2,25.2,0,0,1,3.58,11.92C247.74,79.51,247.75,79.87,247.75,80.23Z"/><path class="cls-2" d="M230.14,61.41A20.05,20.05,0,0,1,241.3,72.67"/><path class="cls-1" d="M202.59,78a20.07,20.07,0,1,0,39.82,0C227.49,80.79,209.86,71.13,202.59,78Z"/><circle class="cls-1" cx="211.22" cy="83.38" r="2.71"/><circle class="cls-1" cx="227.46" cy="90.59" r="4.51"/><path class="cls-1" d="M94.14,45.43V55H67.89V46.59H53.67V55H26.33V45.43A9.12,9.12,0,0,1,32,37a9.92,9.92,0,0,1,4-.85H84.42A9.79,9.79,0,0,1,93,41,9,9,0,0,1,94.14,45.43Z"/><path class="cls-1" d="M95.24,61.18v46h-70v-46H53.67v7.33a12.39,12.39,0,0,0-2.19,1.82,11.76,11.76,0,0,0-2.95,5.39,11.45,11.45,0,0,0-.32,2.69,11.62,11.62,0,0,0,2.16,6.74,12.85,12.85,0,0,0,20.77,0,11.46,11.46,0,0,0,2.22-7A10.73,10.73,0,0,0,73,75.72a11.67,11.67,0,0,0-3-5.39,12.83,12.83,0,0,0-2.2-1.82V61.18Z"/><path class="cls-1" d="M95.24,89.91v17.24H80.83a14.12,14.12,0,0,1-.36-3.14,11.9,11.9,0,0,1,.07-1.34C81.24,95.51,87.55,89.91,95.24,89.91Z"/><path class="cls-1" d="M41.1,104a14.74,14.74,0,0,1-.36,3.14H25.24V90c.36,0,.72,0,1.09,0a15.09,15.09,0,0,1,9.53,3.33A14,14,0,0,1,40,98.63a13.45,13.45,0,0,1,1.05,4A11.9,11.9,0,0,1,41.1,104Z"/><line class="cls-3" x1="82.74" y1="54.94" x2="82.74" y2="36.14"/><line class="cls-3" x1="74.74" y1="54.94" x2="74.74" y2="36.14"/><rect class="cls-1" x="53.67" y="46.59" width="14.22" height="8.36"/><polyline class="cls-1" points="53.67 68.51 53.67 61.18 67.89 61.18 67.89 68.51"/><path class="cls-2" d="M53.67,68.51a12.39,12.39,0,0,0-2.19,1.82,11.76,11.76,0,0,0-2.95,5.39,11.45,11.45,0,0,0-.32,2.69,11.62,11.62,0,0,0,2.16,6.74,12.85,12.85,0,0,0,20.77,0,11.46,11.46,0,0,0,2.22-7A10.73,10.73,0,0,0,73,75.72a11.67,11.67,0,0,0-3-5.39,12.83,12.83,0,0,0-2.2-1.82M65.16,82.72l-1.84-6.55a3,3,0,0,0,.35-.45,2.54,2.54,0,0,0,.16-.28,1,1,0,0,0,.09-.21.08.08,0,0,0,0,0,2.38,2.38,0,0,0,.15-.52.58.58,0,0,0,0-.19,2.56,2.56,0,0,0,0-.39,3.26,3.26,0,0,0-6.52,0,3.13,3.13,0,0,0,.08.66.85.85,0,0,0,0,.17,1.66,1.66,0,0,0,.12.31,1,1,0,0,0,.09.21,2.54,2.54,0,0,0,.16.28,3.94,3.94,0,0,0,.36.45l-1.85,6.55Z"/><line class="cls-4" x1="46.74" y1="54.94" x2="46.74" y2="36.14"/><line class="cls-4" x1="38.74" y1="54.94" x2="38.74" y2="36.14"/><rect class="cls-5" width="442.97" height="143.29"/></g></g></svg>