<svg xmlns="http://www.w3.org/2000/svg" viewBox="0 0 312.45 94.13"><defs><style>.cls-1,.cls-2,.cls-3,.cls-4,.cls-6{fill:none;}.cls-1,.cls-2,.cls-3,.cls-4,.cls-5{stroke:#edf2f7;stroke-miterlimit:10;}.cls-1,.cls-2,.cls-4{stroke-width:3px;}.cls-2,.cls-3,.cls-4{stroke-linecap:round;}.cls-3{stroke-width:2px;}.cls-4{fill-rule:evenodd;}.cls-5{fill:#edf2f7;}</style></defs><g id="Layer_2" data-name="Layer 2"><g id="Coin"><path class="cls-1" d="M290.12,85H235.21l.77-1.89,2.2-5.39.55-1.35,2.75-6.73,1.1-2.7,2.85-7A26,26,0,0,1,236.16,40v0a25.71,25.71,0,0,1,2-9.87,24.29,24.29,0,0,1,1.73-3.46,26,26,0,0,1,41.57-4.18A26,26,0,0,1,288.23,40a26.33,26.33,0,0,1-1.27,8,26.09,26.09,0,0,1-7.48,11.41c-.34.31-.69.6-1.05.89l1.48,3.13,1.63,3.43L286,76.37l1.92,4Z"/><line class="cls-2" x1="262.2" y1="84.85" x2="262.2" y2="72.21"/><line class="cls-2" x1="279.23" y1="84.85" x2="272.83" y2="69.91"/><line class="cls-2" x1="251.28" y1="70.18" x2="245.43" y2="84.85"/><rect class="cls-1" x="244.2" y="38" width="16.26" height="13.45" rx="3.5"/><rect class="cls-1" x="264.87" y="38" width="16.26" height="13.45" rx="3.5"/><path class="cls-1" d="M263.84,63.54l3.09-5.35a2,2,0,0,0-1.71-3H259a2,2,0,0,0-1.71,3l3.09,5.35A2,2,0,0,0,263.84,63.54Z"/><path class="cls-2" d="M270.57,20.8c6.38,2.5,10.22,6.65,11.06,13.7"/><path class="cls-1" d="M92.84,76.27a6.51,6.51,0,1,1-9.2,9.2Z"/><polyline class="cls-1" points="65.81 51.38 66.47 52.03 72.64 58.2 73.69 59.26 66.63 66.33 58.74 58.45"/><polyline class="cls-1" points="51.67 51.38 32.45 32.15 32.24 31.47 30.07 24.28 29.41 22.04 36.85 24.28 39.52 25.08 45.53 31.1 55.16 40.72 58.74 44.31"/><polyline class="cls-1" points="72.14 69.37 75.36 72.59 77.41 74.64 77.53 74.76 80.61 77.85 80.61 77.85 85.28 82.51 89.88 77.91 87.11 75.14 81.84 69.88 76.73 64.77"/><path class="cls-1" d="M79.67,61.83,69.19,72.31a1.74,1.74,0,0,1-.34.28,2.72,2.72,0,0,1-3.13,0,1.79,1.79,0,0,1-.35-.28l-.13-.13a2.73,2.73,0,0,1,0-3.82L75.72,57.88a2.72,2.72,0,0,1,3.83,0l.12.13A2.71,2.71,0,0,1,79.67,61.83Z"/><line class="cls-1" x1="81.84" y1="69.88" x2="75.35" y2="72.59"/><line class="cls-1" x1="87.1" y1="75.14" x2="80.61" y2="77.85"/><line class="cls-3" x1="66.49" y1="57.56" x2="63.06" y2="54.13"/><line class="cls-3" x1="55.99" y1="47.06" x2="47.88" y2="38.96"/><path class="cls-1" d="M33.85,85.47a6.51,6.51,0,1,1-9.2-9.2Z"/><polygon class="cls-1" points="88.08 22.04 87.81 22.92 87.72 23.25 85.86 29.42 85.05 32.15 50.87 66.33 43.8 59.26 44.85 58.2 51.02 52.03 51.67 51.38 58.74 44.31 62.34 40.72 73.64 29.42 77.97 25.08 79.08 24.75 84.06 23.25 87.34 22.26 88.08 22.04"/><polyline class="cls-1" points="40.76 64.77 39.78 65.75 38.09 67.44 37.53 67.99 34.99 70.53 32.27 73.25 27.61 77.91 32.22 82.51 38.84 75.89 40.24 74.48 43.44 71.29 45.35 69.37"/><path class="cls-1" d="M52.24,72.18l-.12.13a1.79,1.79,0,0,1-.35.28,2.72,2.72,0,0,1-3.13,0,1.74,1.74,0,0,1-.34-.28L37.82,61.83a2.71,2.71,0,0,1-.18-3.63l.18-.19.12-.13a2.72,2.72,0,0,1,3.83,0L52.24,68.36A2.71,2.71,0,0,1,52.24,72.18Z"/><line class="cls-1" x1="40.24" y1="74.48" x2="37.53" y2="67.98"/><line class="cls-1" x1="34.98" y1="79.74" x2="32.27" y2="73.24"/><line class="cls-3" x1="52.89" y1="57.57" x2="71.49" y2="38.96"/><path class="cls-4" d="M174,64.58a1.84,1.84,0,0,1,0,.41,1.5,1.5,0,0,1-.3-.27l-2.79-2.79A19.58,19.58,0,0,0,174,60.67Z"/><path class="cls-4" d="M184.88,82.24l-2.31.63-3.13-4-1.37-1.75-.25,1.75-.77,5.49-2.49.66-1.64-6.15-1.09-4-.93-3.49a8.4,8.4,0,0,0,.8-.78,8.53,8.53,0,0,0,.86-1.12A8.45,8.45,0,0,0,174,65a8.77,8.77,0,0,0,6,2.33,8.88,8.88,0,0,0,.9,0l.59,2.15,1.44,5.39,1.07,4Z"/><path class="cls-4" d="M159.11,71.13l-1,3.68-1.09,4L155.4,85l-2.32-.62-.51-5.53-.25-2.66-1.87,2.66-2.88,4.06-2.49-.67.91-3.39,1.08-4,1.45-5.39.57-2.15a8.83,8.83,0,0,0,7.15-2.51,8.61,8.61,0,0,0,1.44,4.66,6.06,6.06,0,0,0,.64.89A10.2,10.2,0,0,0,159.11,71.13Z"/><path class="cls-4" d="M159.14,61.86l-2.87,2.86s0,0,0,0a.55.55,0,0,1,0-.18V60.67A20.08,20.08,0,0,0,159.14,61.86Z"/><path class="cls-4" d="M174,65a8.45,8.45,0,0,1-1.43,4.43,8.53,8.53,0,0,1-.86,1.12,8.4,8.4,0,0,1-.8.78,8.81,8.81,0,0,1-5.76,2.15h0a8.92,8.92,0,0,1-6-2.34,10.2,10.2,0,0,1-.79-.82,6.06,6.06,0,0,1-.64-.89,8.61,8.61,0,0,1-1.44-4.66s0,0,0,0l2.87-2.86a12.08,12.08,0,0,0,1.34.38c.32.08.65.15,1,.2h0a19.3,19.3,0,0,0,3.68.35,18.91,18.91,0,0,0,3.39-.3l1-.2a11.39,11.39,0,0,0,1.42-.37l2.79,2.79A1.5,1.5,0,0,0,174,65Z"/><path class="cls-4" d="M159.14,61.86l-2.87,2.86s0,0,0,0a.55.55,0,0,1,0-.18V60.67A20.08,20.08,0,0,0,159.14,61.86Z"/><path class="cls-4" d="M174,60.67v3.91a1.84,1.84,0,0,1,0,.41,1.5,1.5,0,0,1-.3-.27l-2.79-2.79A19.58,19.58,0,0,0,174,60.67Z"/><path class="cls-4" d="M174,21.85v4c-.29-.15-.57-.29-.86-.42l-.24-.11c-.25-.11-.5-.22-.76-.31l-.06,0c-.29-.12-.59-.22-.89-.32a19.6,19.6,0,0,0-12.39.07c-.24.08-.47.16-.69.25a17.35,17.35,0,0,0-1.91.86V21.89a7.77,7.77,0,0,1,.06-1A8.92,8.92,0,0,1,165.13,13h0A8.91,8.91,0,0,1,174,21.85Z"/><path class="cls-4" d="M156.24,64.76a8.83,8.83,0,0,1-7.15,2.51,7.52,7.52,0,0,1-1-.15,8.9,8.9,0,0,1-4.57-14.84h4.2a19.72,19.72,0,0,0,3.16,4.41c.26.28.53.55.8.8l.3.28c.28.25.57.5.87.73s.52.41.79.6a4.67,4.67,0,0,0,.51.36c.19.13.37.26.57.38a16,16,0,0,0,1.45.83v3.91A.55.55,0,0,0,156.24,64.76Z"/><path class="cls-4" d="M147.77,52.28h-4.2l.14-.14,2.81-2.82c.09.28.19.56.3.83s.13.32.19.47.2.49.31.73.17.37.26.55Z"/><path class="cls-4" d="M159.14,61.86l-2.87,2.86s0,0,0,0a.55.55,0,0,1,0-.18V60.67A20.08,20.08,0,0,0,159.14,61.86Z"/><path class="cls-4" d="M189.06,28.25a9.05,9.05,0,0,1-.68,3.44,8.8,8.8,0,0,1-1.78,2.7.87.87,0,0,0-.09.11l0,0-2.72,2.72a16.68,16.68,0,0,0-1.11-2.77.47.47,0,0,1-.06-.09,18.56,18.56,0,0,0-1.65-2.7c-.22-.31-.46-.61-.71-.9s-.49-.58-.75-.86a10.07,10.07,0,0,0-.79-.81c-.25-.25-.51-.48-.78-.72l-.12-.09-.72-.58a1.73,1.73,0,0,0-.2-.15L176,27l0,0c-.27-.19-.54-.36-.83-.53s-.75-.43-1.14-.63-.57-.29-.86-.42l-.24-.11c-.25-.11-.5-.22-.76-.31l-.06,0c-.29-.12-.59-.22-.89-.32L173.89,22c.05,0,.07-.08.13-.11a8.9,8.9,0,0,1,10.54-1.33,8.43,8.43,0,0,1,1.9,1.44,8.88,8.88,0,0,1,1.31,1.65,10,10,0,0,1,.67,1.35A9.06,9.06,0,0,1,189.06,28.25Z"/><path class="cls-4" d="M147.77,52.28h-4.2a8.82,8.82,0,0,1-1.78-.19h0a9,9,0,0,1-6.85-6.91,8.18,8.18,0,0,1-.19-1.79h0a8.9,8.9,0,0,1,8.73-8.87h4.16a18.16,18.16,0,0,0-1.2,3,19.35,19.35,0,0,0-.88,5.78,20,20,0,0,0,1,6.08c.09.28.19.56.3.83s.13.32.19.47.2.49.31.73.17.37.26.55Z"/><path class="cls-4" d="M195.21,43.38h0a8.8,8.8,0,0,1-.56,3.12,8.93,8.93,0,0,1-5.8,5.39,8.57,8.57,0,0,1-2.49.37h-3.88c.17-.32.32-.63.48-1s.17-.38.24-.57c.16-.4.32-.8.45-1.21a21.18,21.18,0,0,0,.76-3,19.59,19.59,0,0,0,.28-3.27,19.12,19.12,0,0,0-.95-6,16.68,16.68,0,0,0-1.11-2.77h3.69a.58.58,0,0,1,.19,0A8.89,8.89,0,0,1,195.21,43.38Z"/><path class="cls-4" d="M158.82,24.71c-.24.08-.47.16-.69.25a17.35,17.35,0,0,0-1.91.86,19.37,19.37,0,0,0-8.53,8.57l-.06.11a18.16,18.16,0,0,0-1.2,3l-2.94-2.93,0,0-.11-.12A8.89,8.89,0,0,1,143.49,22a9.32,9.32,0,0,1,1.25-1,9,9,0,0,1,10.08,0,7.76,7.76,0,0,1,1.25,1l.15.15Z"/><path class="cls-4" d="M188.38,61.33a9,9,0,0,1-2.12,3.39,8.88,8.88,0,0,1-4.44,2.4,7.39,7.39,0,0,1-1,.15,8.88,8.88,0,0,1-.9,0A8.77,8.77,0,0,1,174,65a1.84,1.84,0,0,0,0-.41V60.67a20.5,20.5,0,0,0,3.39-2.2,20.15,20.15,0,0,0,5.07-6.2h3.88A8.93,8.93,0,0,1,188.38,61.33Z"/><path class="cls-4" d="M174,60.67v3.91a1.84,1.84,0,0,1,0,.41,1.5,1.5,0,0,1-.3-.27l-2.79-2.79A19.58,19.58,0,0,0,174,60.67Z"/><path class="cls-4" d="M186.36,52.27h-3.88c.17-.32.32-.63.48-1s.17-.38.24-.57c.16-.4.32-.8.45-1.21l2.61,2.61S186.33,52.22,186.36,52.27Z"/><path class="cls-4" d="M159.14,61.86l-2.87,2.86s0,0,0,0a.55.55,0,0,1,0-.18V60.67A20.08,20.08,0,0,0,159.14,61.86Z"/><path class="cls-4" d="M174,60.67v3.91a1.84,1.84,0,0,1,0,.41,1.5,1.5,0,0,1-.3-.27l-2.79-2.79A19.58,19.58,0,0,0,174,60.67Z"/><path class="cls-4" d="M159.14,61.86l-2.87,2.86s0,0,0,0a.55.55,0,0,1,0-.18V60.67A20.08,20.08,0,0,0,159.14,61.86Z"/><path class="cls-4" d="M174,60.67v3.91a1.84,1.84,0,0,1,0,.41,1.5,1.5,0,0,1-.3-.27l-2.79-2.79A19.58,19.58,0,0,0,174,60.67Z"/><path class="cls-4" d="M147.77,52.28h-4.2l.14-.14,2.81-2.82c.09.28.19.56.3.83s.13.32.19.47.2.49.31.73.17.37.26.55Z"/><path class="cls-4" d="M159.14,61.86l-2.87,2.86s0,0,0,0a.55.55,0,0,1,0-.18V60.67A20.08,20.08,0,0,0,159.14,61.86Z"/><path class="cls-4" d="M174,60.67v3.91a1.84,1.84,0,0,1,0,.41,1.5,1.5,0,0,1-.3-.27l-2.79-2.79A19.58,19.58,0,0,0,174,60.67Z"/><path class="cls-4" d="M186.36,52.27h-3.88c.17-.32.32-.63.48-1s.17-.38.24-.57c.16-.4.32-.8.45-1.21l2.61,2.61S186.33,52.22,186.36,52.27Z"/><path class="cls-4" d="M159.14,61.86l-2.87,2.86s0,0,0,0a.55.55,0,0,1,0-.18V60.67A20.08,20.08,0,0,0,159.14,61.86Z"/><path class="cls-4" d="M174,60.67v3.91a1.84,1.84,0,0,1,0,.41,1.5,1.5,0,0,1-.3-.27l-2.79-2.79A19.58,19.58,0,0,0,174,60.67Z"/><path class="cls-5" d="M167.07,53.36V29.55h-7.43v3.26h3.72V53.36h-3.72v3.3h11v-3.3Z"/><path class="cls-5" d="M170.6,56.66h-11v-3.3h3.72V32.81h-3.72V29.55h7.43V53.36h3.53Z"/><rect class="cls-6" width="312.45" height="94.13"/></g></g></svg>