<svg xmlns="http://www.w3.org/2000/svg" viewBox="0 0 111.56 111.56"><defs><style>.cls-1{fill:#a9e37d;}.cls-2,.cls-3,.cls-6{fill:none;}.cls-2,.cls-3,.cls-4,.cls-6,.cls-8{stroke:#282828;stroke-miterlimit:10;}.cls-2,.cls-3,.cls-4,.cls-8{stroke-linecap:round;}.cls-2,.cls-4{stroke-width:3px;}.cls-3{stroke-width:2px;}.cls-4,.cls-5,.cls-9{fill:#282828;}.cls-6,.cls-8{stroke-width:3.09px;}.cls-7,.cls-8{fill:#fff;}.cls-9{font-size:52.07px;font-family:Rockwell;}</style></defs><g id="All"><path class="cls-1" d="M105.6,63.22C117.76,91.51,89,113.88,55.54,109.73S-6.16,67,6,33.91,63.54-7.81,89.45,11.44,93.45,34.92,105.6,63.22Z"/><line class="cls-2" x1="81.04" y1="92.49" x2="86.29" y2="97.74"/><line class="cls-2" x1="86.29" y1="92.49" x2="81.04" y2="97.74"/><line class="cls-2" x1="86.04" y1="23.49" x2="91.29" y2="28.74"/><line class="cls-2" x1="91.29" y1="23.49" x2="86.04" y2="28.74"/><circle class="cls-3" cx="96.56" cy="69.78" r="2.53"/><circle class="cls-3" cx="59.56" cy="10.78" r="2.53"/><circle class="cls-3" cx="45.29" cy="101.51" r="1.26"/><line class="cls-4" x1="11.44" y1="27.95" x2="11.44" y2="35.38"/><line class="cls-4" x1="15.16" y1="31.67" x2="7.73" y2="31.67"/></g><g id="Coin"><path class="cls-5" d="M55.78,20.73A35.48,35.48,0,1,1,20.3,56.21,35.52,35.52,0,0,1,55.78,20.73m0-3.09A38.57,38.57,0,1,0,94.34,56.21,38.57,38.57,0,0,0,55.78,17.64Z"/><polyline class="cls-6" points="55.78 84.99 55.78 85 55.78 87.07 55.78 94.27"/><polyline class="cls-6" points="55.78 28.98 55.78 27.94 55.78 25.36 55.78 18.16"/><polyline class="cls-6" points="69.55 81.61 69.64 81.76 70.54 83.31 74.13 89.55"/><polyline class="cls-6" points="36.09 23.65 39.69 29.9 41.64 33.26"/><polyline class="cls-6" points="80.1 71.8 80.28 71.9 81.8 72.77 88.04 76.38"/><polyline class="cls-6" points="31.77 43.89 30.71 43.29 28.42 41.96 22.18 38.36"/><polyline class="cls-6" points="84.54 57.76 84.55 57.76 86.59 57.76 93.8 57.76"/><polyline class="cls-6" points="28.54 57.76 27.53 57.76 24.96 57.76 17.76 57.76"/><polyline class="cls-6" points="89.38 38.36 83.14 41.96 81.23 43.06 80.95 43.22"/><polyline class="cls-6" points="23.52 76.38 29.76 72.77 31.82 71.58 32.42 71.24"/><polyline class="cls-6" points="75.46 23.65 71.86 29.9 70.67 31.97 70.32 32.58"/><polyline class="cls-6" points="37.43 89.55 41.02 83.31 42.13 81.39 42.3 81.11"/><circle class="cls-7" cx="55.78" cy="55.95" r="28.03"/><path class="cls-8" d="M50,28.51a28.54,28.54,0,1,1-18.18,12.4"/><text class="cls-9" transform="translate(41.67 73.26)">$</text></g></svg>