<svg version="1.1" id="Layer_1" xmlns="http://www.w3.org/2000/svg" x="0" y="0" viewBox="0 0 111.6 111.6" xml:space="preserve"><style>.st25,.st26{fill:none;stroke:#282828;stroke-width:3;stroke-linecap:round;stroke-miterlimit:10}.st26{stroke-width:2}.st32{fill:#282828}.st33{fill:none;stroke:#282828;stroke-width:3.0853;stroke-miterlimit:10}</style><path d="M105.6 63.5C117.8 91.8 89 114.2 55.5 110 22.1 105.9-6.2 67.3 6 34.2 18.1 1.1 63.6-7.5 89.5 11.7c25.9 19.3 3.9 23.5 16.1 51.8z" fill="#a9e37d"/><path class="st25" d="M81 92.8l5.3 5.2M86.3 92.8L81 98M88.9 21.9l3 6.8M93.8 23.8l-6.8 3"/><circle class="st26" cx="99.8" cy="75.8" r="2.5"/><circle class="st26" cx="59.6" cy="11.1" r="2.5"/><circle class="st26" cx="45.3" cy="101.8" r="1.3"/><path class="st25" d="M11.4 28.3v7.4M15.2 32H7.7"/><path class="st32" d="M55.8 21c19.6 0 35.5 15.9 35.5 35.5S75.3 92 55.8 92 20.3 76.1 20.3 56.5 36.2 21 55.8 21m0-3.1c-21.3 0-38.6 17.3-38.6 38.6s17.3 38.6 38.6 38.6 38.6-17.3 38.6-38.6-17.3-38.6-38.6-38.6z"/><path class="st33" d="M55.8 85.3v9.3M55.8 29.3V18.5M69.5 81.9l.1.2.9 1.5 3.6 6.2M36.1 24l3.6 6.2 1.9 3.4M80.1 72.1l.2.1 1.5.9 6.2 3.6M31.8 44.2l-1.1-.6-2.3-1.3-6.2-3.6M84.5 58.1h9.3M28.5 58.1H17.8M89.4 38.7l-6.3 3.6-1.9 1.1-.2.1M23.5 76.7l6.3-3.6 2-1.2.6-.4M75.5 24l-3.6 6.2-1.2 2.1-.4.6M37.4 89.8l3.6-6.2 1.1-1.9.2-.3"/><circle cx="55.8" cy="56.3" r="28" fill="#fff"/><path d="M50 28.8c1.9-.4 3.8-.6 5.8-.6 15.8 0 28.5 12.8 28.5 28.5S71.5 85.3 55.8 85.3 27.2 72.5 27.2 56.8c0-5.7 1.7-11.1 4.6-15.6" fill="#fff" stroke="#282828" stroke-width="3.085" stroke-linecap="round" stroke-miterlimit="10"/><g><path class="st32" d="M53.7 74.1c-3.2-.1-5.7-1.2-7.6-3.2-1.9-2-2.8-4.4-2.8-7.3v-.7h4.6c.3 4.2 2.2 6.6 5.7 7.1V58.3C47.2 57 44 53.8 44 48.5c0-2.8.9-5.1 2.6-6.9 1.7-1.8 4.1-2.8 7.1-3.1v-1.6h3.8v1.6c2.2.2 4.2 1.1 6 2.6 1.8 1.5 2.6 4.2 2.6 8v.6h-4.5c0-2.2-.3-3.8-1-4.8-.6-1.1-1.7-1.8-3.2-2.1v11c4.1.9 6.8 2.2 8.2 3.7 1.4 1.6 2.1 3.6 2.1 6 0 3.1-.9 5.5-2.7 7.3s-4.3 2.9-7.6 3.2v3.9h-3.8v-3.8zm0-21.2V42.5c-3.1.5-4.6 2.3-4.6 5.2 0 2.8 1.5 4.5 4.6 5.2zm3.8 6.2v10.8c3.6-.7 5.3-2.6 5.3-5.7 0-1.3-.3-2.3-1-3.2-.7-.8-2.1-1.4-4.3-1.9z"/></g></svg>