<svg xmlns="http://www.w3.org/2000/svg" viewBox="0 0 332.17 291.56"><defs><style>.cls-1{fill:none;stroke:#edf2f7;stroke-miterlimit:10;stroke-width:3px;}</style></defs><g id="Layer_2" data-name="Layer 2"><g id="Coin"><polyline class="cls-1" points="55.36 291.56 55.36 242.97 55.36 145.78 55.36 48.6 55.36 0"/><polyline class="cls-1" points="166.08 291.56 166.08 242.97 166.08 145.78 166.08 48.6 166.08 0"/><polyline class="cls-1" points="276.81 291.56 276.81 242.97 276.81 145.78 276.81 48.6 276.81 0"/><polyline class="cls-1" points="332.17 48.6 276.81 48.6 166.08 48.6 55.36 48.6 0 48.6"/><polyline class="cls-1" points="332.17 145.78 276.81 145.78 166.08 145.78 55.36 145.78 0 145.78"/><polyline class="cls-1" points="332.17 242.97 276.81 242.97 166.08 242.97 55.36 242.97 0 242.97"/></g></g></svg>