<svg version="1.1" id="Layer_2" xmlns="http://www.w3.org/2000/svg" x="0" y="0" viewBox="0 0 337 295" xml:space="preserve"><style>.st0{fill:#fff;stroke:#282828;stroke-width:7;stroke-miterlimit:10}.st0,.st1{stroke-linecap:round;stroke-linejoin:round}.st1,.st2,.st3{fill:#a9e37d;stroke:#282828;stroke-width:7;stroke-miterlimit:10}.st3{fill:#fff}</style><path class="st0" d="M144.4 194.1c-3.6 35.9-37.1 63.1-71.9 62.4-36.2-.7-62.2-31.2-66-61-2.6-20.8 6-37.4 10-44 1.4 44.9 30.1 74.7 55 74 21.7-.6 38.5-24.1 45-41 .9-2.3 1.6-4.6 2.2-6.8l25.7 16.4zM330.5 195.5c-3.8 29.8-29.8 60.3-66 61-35 .6-68.7-26.8-72-62.9l25.2-18.3c.7 3 1.6 6.1 2.8 9.2 6.5 16.9 23.3 40.4 45 41 24.9.7 53.6-29.1 55-74 4 6.6 12.6 23.2 10 44z"/><path class="st1" d="M308.3 71.2c-1.5 4.6-3.5 10.1-5.8 16.3-8.7 22.5-31.4 81.3-51 80-5.1-.4-15.5-5.1-26-45-2.1 3.7-14 26.2-7.8 52.8l-25.2 18.3v-.1h-48c0 .2 0 .4-.1.6l-25.7-16.4c7.5-27.6-5.1-51.3-7.2-55.2-10.5 39.9-20.9 44.6-26 45-19.6 1.3-42.3-57.5-51-80-2.4-6.2-4.3-11.7-5.8-16.3-1.4-4.1-.2-8.7 3.1-11.5 28.9-25.8 47.5-28.6 59.8-25.2 6.5 1.8 14.7 4.7 20.1 6.8 3.6 1.4 7.7.3 10.2-2.7 5.3-6.3 14.3-17.8 18.8-28.4 1.4-3.4 4.7-5.6 8.3-5.6h39.2c3.7 0 6.9 2.2 8.3 5.6 4.5 10.6 13.4 22.1 18.8 28.4 2.5 3 6.6 4 10.2 2.7 5.4-2 13.6-4.9 20.1-6.8 12.2-3.4 30.9-.6 59.8 25.2 3.1 2.9 4.3 7.4 2.9 11.5z"/><circle class="st3" cx="135" cy="100" r="11"/><circle class="st3" cx="203" cy="100" r="11"/><path class="st1" d="M139.9 146.5c3.3 16.1 5.3 30.6 6.7 43 .8 7.9 1.4 14.9 1.8 21 .4 7 2.8 46.3-2.1 47-1.7.2-3.7-4.1-5.3-8-2.4 6.1-8.8 10.5-20 13 7.9 19.5 26.5 30.6 43.1 28 7.8-1.2 13.7-5.2 17.7-8.9 3.5-3.2 5.5-7.6 5.6-12.3.9-26.6 1.7-53.2 2.6-79.8.5-14.3.9-28.7 1.4-43"/></svg>