<svg version="1.1" id="Layer_1" xmlns="http://www.w3.org/2000/svg" x="0" y="0" viewBox="0 0 45.2 41.5" xml:space="preserve"><style></style><path d="M42.5 10.3c-.8-1.7-1.9-3.2-3.3-4.5-1.3-1.2-2.9-2.2-4.6-2.8h-.1l-.4-.1-.9-.3-1.2-.3c-.3-.1-.6-.2-.9-.4h0c-.1-.1-.2-.2-.4-.2-.2-.2-.5-.3-.8-.3-.7 0-1.4.5-1.4 1.3l-.1 2.6c0 .4.1.7.4 1 .4.5 1.1.6 1.6.2 0 0 .1 0 .1-.1.1 0 .2-.1.3-.1H31.1c.1 0 .1.1.2.1l.4.2c.2.1.3.2.5.2.1.1.2.1.4.2 1 .6 1.9 1.4 2.6 2.3.7.9 1.2 1.9 1.5 3 .2 1 .3 2.1.1 3.1-.2 1-.6 1.9-1.2 2.7-.6.8-1.3 1.4-2.1 1.9-.8.4-1.6.7-2.5.8-.1 0-.1-.1-.2-.1-.9-2.4-3.6-10.3-3.6-10.4-.7-2-2.8-3-4.8-2.4L4 14.2C2 14.9 1 17 1.6 19l6.3 18.5c.5 1.5 2 2.6 3.6 2.6.4 0 .8-.1 1.2-.2l18.6-6.3c1.3-.4 2.2-1.5 2.5-2.9l.5-.2c1.9-.9 3.7-2.1 5.2-3.6 1.4-1.5 2.6-3.2 3.3-5.1.7-1.9 1.1-3.9 1-5.9-.1-1.9-.5-3.8-1.3-5.6z" fill="#a9e37d" stroke="#282828" stroke-width="2" stroke-miterlimit="10"/><path d="M20.1 24.8c-.1 1.4-1.3 2.5-2.7 2.4-1.4-.1-2.5-1.3-2.4-2.7.1-1.3 1.1-2.3 2.4-2.4 1.4-.1 2.6 1 2.7 2.4v.3z" fill="#fff" stroke="#282828" stroke-width="2.091" stroke-miterlimit="10"/><path d="M33.7 30.8c-2.6 1-5.1.5-5.9-1.1l.4-.4.6.2 3 .8 1.9.5z" fill="#a9e37d"/><path d="M34.1 31.7c-.9.3-1.8.5-2.7.5-1.1 0-2.1-.2-2.9-.6-.6-.3-1.1-.7-1.4-1.2l.7-.7.4-.4.3-.4c.1.2.1.4.3.5.2.2.4.4.6.5.6.3 1.5.4 2.4.3.5-.1 1-.2 1.6-.4l.3.9.4 1z" fill="#282828"/></svg>