<svg version="1.1" id="Layer_1" xmlns="http://www.w3.org/2000/svg" x="0" y="0" viewBox="0 0 81.6 22.6" xml:space="preserve"><style>.st0{fill:#282828}</style><path class="st0" d="M2.5 14.3c0-.4 0-4.1-.1-4.6 3.2 0 5 .1 6.6.3 4.5.6 5.3 2.9 5.3 4.3 0 5.4-6.4 7.5-11.8 7.5.1-.8.1-5 .1-5.5v-2zm3.8 4.5c1.7-.3 4-1.5 4-3.9 0-2-2-2.5-4-2.5v6.4zM20.6 16.6c0 1.7.1 4.7.1 5.1h-3.9c0-.7.1-4.7.1-5.2v-1.8c0-.3-.1-4.7-.1-5.1h3.9c0 .3-.1 3.1-.1 5.1v1.9zM32.5 21.9c-.5.1-1.2.1-2 .1-5.6 0-7.6-2.8-7.6-5.1 0-2.8 2.6-6.2 8.4-7.5l.7 3.3c-3.6.6-5 2.2-5 3.8 0 1.3 1.4 2.4 3.7 2.4.7 0 1.2-.1 1.6-.1l.2 3.1zM42.7 21.9c-.6 0-6.7-.2-7.6-.2.1-.9.1-4.5.1-4.9v-2.3c0-.3 0-4.4-.1-4.9 1 0 6.7-.3 7.3-.3l.1 2.8c-.6 0-3.3.1-3.6.1v2.2c.3 0 2.3-.1 3-.2l.1 2.7c-.5 0-2.7-.1-3.1-.1v2h3.8v3.1z"/><g><path class="st0" d="M3.5 7.3c.1-.3.1-3.2.1-4.8V1C2.4 1 1 1.1.7 1.1V.3c.4.1 2.8.1 2.9.1h.9c.2 0 2.4 0 2.9-.1v.8c-.2 0-2-.1-2.9-.1v1.6c0 2 .1 4.4.1 4.6H3.5zM8.7 7.3V3.8c0-.2 0-2.2-.1-2.4h1c0 .2-.1 1.9-.1 2V4l3.9-.2v-.6-1.9h1c0 .2-.1 2.5-.1 2.7v3.2h-1c0-.3.1-1.8.1-2v-.7l-3.8.1v2.6h-.9zM20.3 7.4c-.3 0-3.1-.1-3.3-.1V3.7 1.4c.2 0 2.6-.1 3.1-.2v.7h-2.2V4c.2 0 1.4 0 1.9-.1v.7h-1.9v2h2.3l.1.8z"/></g><g opacity=".99"><path class="st0" d="M46.8 20.5c.5-.9 5.2-8.8 6.9-11.4h.2c2 3.1 6.6 10.3 7.3 11.2l-3.4 2c-.5-.8-1.4-2.3-1.5-2.6l-5.2.3c-.1.2-.7 1.6-1.1 2.4l-3.2-1.9zm8.3-3.2c-.5-1-1.1-2.2-1.4-2.9-.4.8-1 2.1-1.4 3l2.8-.1zM71.6 19.5v2.1c-.5.1-1.9.3-3.5.3-4.6 0-6.5-2-6.5-4.3 0-1.8 1.7-5.3 8.2-6.5l.7 3c-2.2.3-5 1.3-5 3.3 0 1.4 1.5 1.9 2.6 1.9v-1.1-1.3h3.5V19.5zM81.4 21.9c-.6 0-6.2-.2-7.1-.2v-6.1-4.1c1 0 6.2-.2 6.8-.3l.1 2.5c-.6 0-3 .1-3.3.1v1.8c.3 0 2.1-.1 2.8-.1v2.4c-.4 0-2.5-.1-2.8-.1v1.6h3.5v2.5z"/></g></svg>