<svg id="Layer_1" data-name="Layer 1" xmlns="http://www.w3.org/2000/svg" viewBox="0 0 161.31 42.9"><defs><style>.cls-1{fill:#282828;}</style></defs><path class="cls-1" d="M5.06,13c0-.47.06-3,.06-5V3.29c-.91,0-3.59.1-4.17.11V.25C1.8.32,6.27.4,6.48.4H8.12c.36,0,4.48-.08,5.4-.15V3.4L9.37,3.29v5c0,1.86,0,4.34.05,4.7Z" transform="translate(-0.95 -0.25)"/><path class="cls-1" d="M15.23,13c0-.67,0-4.25,0-4.65V6.7c0-.27,0-4.2-.07-4.57h4.24c0,.28-.09,3.24-.09,3.51v.54l4.14-.29V5.31c0-.25,0-2.84-.08-3.18h4.23c0,.37-.08,4.66-.08,5V8.68c0,.2,0,4,.08,4.32H23.41c0-.52.08-3,.08-3.29V8.64l-4.14.29v.45c0,.7.06,3.26.08,3.62Z" transform="translate(-0.95 -0.25)"/><path class="cls-1" d="M39,13.16c-.7,0-6.89-.16-7.89-.16,0-.81,0-4.09,0-4.45v-2c0-.25,0-3.95,0-4.39,1.07,0,6.83-.22,7.55-.28l.08,2.63c-.65,0-3.35.09-3.65.09V6.43c.34,0,2.32-.07,3.08-.15l0,2.56-3.12-.05v1.65c.44,0,3,0,3.85,0Z" transform="translate(-0.95 -0.25)"/><path class="cls-1" d="M1.89,26.16c0-.75,0-8.71-.18-9.72a99.35,99.35,0,0,1,13.82.65c9.43,1.3,11.23,6.19,11.23,9.11,0,11.34-13.46,16-25.09,16,.15-1.66.22-10.58.22-11.55Zm7.92,9.47c3.52-.58,8.38-3.13,8.38-8.17,0-4.25-4.32-5.26-8.38-5.26Z" transform="translate(-0.95 -0.25)"/><path class="cls-1" d="M39.11,32.75c0,3.06.11,8.53.14,9.25h-8c0-1.33.08-8.5.08-9.29V29.4c0-.54-.08-8.39-.08-9.14h8c0,.57-.14,5.51-.14,9.18Z" transform="translate(-0.95 -0.25)"/><path class="cls-1" d="M62.15,42.25a28.76,28.76,0,0,1-3.89.25c-10.72,0-14.83-5-14.83-9.21,0-5.08,5.08-11.48,16.38-13.5l1.44,6.05c-6.7,1.11-9.43,3.81-9.43,6.66,0,2.37,2.48,4.06,6.84,4.06,1.33,0,2.37-.07,3.17-.14Z" transform="translate(-0.95 -0.25)"/><path class="cls-1" d="M81.91,42.32c-1.33,0-13.14-.32-15-.32.07-1.62.07-8.17.07-8.89V29c0-.5-.07-7.88-.07-8.78,2,0,13-.43,14.4-.54L81.41,25c-1.22,0-6.37.18-7,.18v3.71c.65,0,4.43-.14,5.87-.29l.07,5.12c-.86,0-5.22-.11-5.94-.11v3.31c.83,0,5.8.07,7.35-.07Z" transform="translate(-0.95 -0.25)"/><path class="cls-1" d="M89,39.34c1.08-1.84,11-18.72,14.54-24.23h.36c4.32,6.52,14,21.74,15.52,23.79l-7.13,4.22c-1-1.77-2.88-5-3.24-5.58l-10.84.61c-.28.5-1.58,3.31-2.37,5Zm17.6-6.84c-1-2.05-2.37-4.61-3-6.09-.87,1.73-2.13,4.4-3.06,6.41Z" transform="translate(-0.95 -0.25)"/><path class="cls-1" d="M141.63,37.25c0,1.19.07,3.89.07,4.53a38.52,38.52,0,0,1-7.38.72c-9.72,0-13.75-4.28-13.75-9.1,0-3.75,3.64-11.2,17.32-13.68l1.51,6.33c-4.65.54-10.59,2.81-10.59,7,0,3,3.17,4.07,5.51,4v-2.3c0-.87-.07-1.7-.07-2.81h7.41c0,1.44,0,2.16,0,3.06Z" transform="translate(-0.95 -0.25)"/><path class="cls-1" d="M162.26,42.32c-1.34,0-13.14-.32-15-.32.07-1.62.07-8.17.07-8.89V29c0-.5-.07-7.88-.07-8.78,2,0,13-.43,14.4-.54l.14,5.25c-1.22,0-6.37.18-6.94.18v3.71c.64,0,4.42-.14,5.86-.29l.08,5.12c-.87,0-5.22-.11-5.94-.11v3.31c.82,0,5.79.07,7.34-.07Z" transform="translate(-0.95 -0.25)"/></svg>