<svg version="1.1" id="Layer_1" xmlns="http://www.w3.org/2000/svg" xmlns:xlink="http://www.w3.org/1999/xlink" x="0" y="0" viewBox="0 0 177.5 41.5" xml:space="preserve"><style>.st0{fill:#282828}.st1{opacity:.99}.st2,.st4,.st5,.st6{fill:#809df9;stroke:#282828;stroke-width:2;stroke-miterlimit:10}.st4,.st5,.st6{fill:none}.st5,.st6{fill:#fff}.st6{fill:#a9e37d}.st9{stroke-width:3;stroke-linecap:round}.st10,.st11,.st9{clip-path:url(#SVGID_4_);fill:none;stroke:#1a1a1a;stroke-miterlimit:10}.st10{stroke-linecap:round;stroke-width:2}.st11{stroke-width:2.936}</style><path class="st0" d="M104.2-37.1c0-.3.1-3.2.1-4.8v-1.5c-1.1 0-2.4 0-2.6.1v-.8c.4 0 2.5.1 2.7.1h.8c.2 0 2.2 0 2.6-.1v.8c-.1 0-1.8-.1-2.6-.1v1.6c0 2 .1 4.4.1 4.6h-1.1v.1zM108.9-37.1v-3.5-2.4h.9v2.6l3.5-.2v-.6-1.9h.9c0 .2-.1 2.5-.1 2.7v3.2h-.9v-2.7l-3.5.2v2.6h-.8zM119.5-37c-.3 0-2.8-.1-3-.1v-3.6-2.3c.2 0 2.4-.1 2.8-.2v.7h-2v2.1c.2 0 1.2 0 1.7-.1v.7H117.3v2h2.1l.1.8z"/><g class="st1"><path class="st0" d="M111.8-10.8c.4-.8 4.6-7.8 6-10.1h.1c1.8 2.7 5.8 9.1 6.4 9.9l-2.9 1.8c-.4-.7-1.2-2.1-1.3-2.3l-4.5.3c-.1.2-.7 1.4-1 2.1l-2.8-1.7zm7.3-2.8c-.4-.9-1-1.9-1.2-2.5-.4.7-.9 1.8-1.3 2.7l2.5-.2zM133.5-11.7v1.9c-.4.1-1.7.3-3 .3-4 0-5.7-1.8-5.7-3.8 0-1.6 1.5-4.7 7.1-5.7l.6 2.6c-1.9.2-4.4 1.2-4.4 2.9 0 1.3 1.3 1.7 2.3 1.7v-1-1.2h3.1v2.3zM142-9.5c-.6 0-5.4-.1-6.2-.1v-5.5-3.7c.8 0 5.4-.2 5.9-.2l.1 2.2c-.5 0-2.6.1-2.9.1v1.5c.3 0 1.8-.1 2.4-.1v2.1h-2.5v1.4h3l.2 2.3z"/></g><path class="st2" d="M-9.6 12.3c-.8-1.7-1.9-3.2-3.3-4.5-1.3-1.2-2.9-2.2-4.6-2.8h-.1l-.4-.1-.9-.3-1.2-.3c-.3-.1-.6-.2-.9-.4-.1-.1-.2-.2-.4-.2-.2-.2-.5-.3-.8-.3-.7 0-1.4.5-1.4 1.3l-.1 2.6c0 .4.1.7.4 1 .4.5 1.1.6 1.6.2 0 0 .1 0 .1-.1.1 0 .2-.1.3-.1H-21c.1 0 .1.1.2.1l.4.2c.2.1.3.2.5.2.4.1.5.2.6.3 1 .6 1.9 1.4 2.6 2.3.7.9 1.2 1.9 1.5 3 .2 1 .3 2.1.1 3.1s-.6 1.9-1.2 2.7c-.6.8-1.3 1.4-2.1 1.9-.8.4-1.6.7-2.5.8-.1 0-.1-.1-.2-.1-.9-2.4-3.6-10.3-3.6-10.4-.7-2-2.8-3-4.8-2.4L-48 16.2c-2 .7-3.1 2.8-2.4 4.8l6.3 18.5c.5 1.5 2 2.6 3.6 2.6.4 0 .8-.1 1.2-.2l18.6-6.3c1.3-.4 2.2-1.5 2.5-2.9l.5-.2c1.9-.9 3.7-2.1 5.2-3.6 1.4-1.5 2.6-3.2 3.3-5.1s1.1-3.9 1-5.9c-.1-1.9-.6-3.8-1.4-5.6z"/><path d="M-8 81.4c-.8-1.7-1.9-3.2-3.3-4.5-1.3-1.2-2.9-2.2-4.6-2.8h-.1l-.4-.1-.9-.3-1.2-.3c-.3-.1-.6-.2-.9-.4h0c-.1-.1-.2-.2-.4-.2-.2-.2-.5-.3-.8-.3-.7 0-1.4.5-1.4 1.3l-.1 2.6c0 .4.1.7.4 1 .4.5 1.1.6 1.6.2 0 0 .1 0 .1-.1.1 0 .2-.1.3-.1H-19.4c.1 0 .1.1.2.1l.4.2c.2.1.3.2.5.2.4.1.5.2.6.3 1 .6 1.9 1.4 2.6 2.3.7.9 1.2 1.9 1.5 3 .2 1 .3 2.1.1 3.1s-.6 1.9-1.2 2.7c-.6.8-1.3 1.4-2.1 1.9-.8.4-1.6.7-2.5.8-.1 0-.1-.1-.2-.1-.9-2.4-3.6-10.3-3.6-10.4-.7-2-2.8-3-4.8-2.4l-18.5 6.2c-2 .7-3.1 2.8-2.4 4.8l6.3 18.5c.5 1.5 2 2.6 3.6 2.6.4 0 .8-.1 1.2-.2l18.6-6.3c1.3-.4 2.2-1.5 2.5-2.9l.5-.2c1.9-.9 3.7-2.1 5.2-3.6 1.4-1.5 2.6-3.2 3.3-5.1s1.1-3.9 1-5.9c-.1-1.9-.6-3.8-1.4-5.6z" fill="#809df9" stroke="#282828" stroke-miterlimit="10"/><path class="st0" d="M128.1-55.9c0-.6 0-6.3-.2-7 4.9 0 7.7.2 10.1.5 6.9.9 8.1 4.4 8.1 6.6 0 8.3-9.8 11.5-18.1 11.5.2-1.2.2-7.7.2-8.4v-3.1h-.1zm5.8 6.9c2.6-.5 6.1-2.3 6.1-6 0-3.1-3.1-3.8-6.1-3.8v9.8zM155.8-52.4c0 2.6.2 7.2.2 7.8h-6c0-1.1.2-7.2.2-8v-2.8c0-.5-.2-7.2-.2-7.8h6c0 .5-.2 4.7-.2 7.8v3zM174-44.3c-.8.2-1.8.2-3.1.2-8.6 0-11.6-4.3-11.6-7.8 0-4.3 4-9.5 12.9-11.5l1.1 5.1c-5.5.9-7.7 3.4-7.7 5.8 0 2 2.1 3.7 5.7 3.7 1.1 0 1.8-.2 2.4-.2l.3 4.7zM189.6-44.3c-.9 0-10.3-.3-11.6-.3.2-1.4.2-6.9.2-7.5v-3.5c0-.5 0-6.7-.2-7.5 1.5 0 10.3-.5 11.2-.5l.2 4.3c-.9 0-5.1.2-5.5.2v3.4c.5 0 3.5-.2 4.6-.3l.2 4.1c-.8 0-4.1-.2-4.7-.2v3.1h5.8v4.7zM51.8 26.3c0-.6 0-6.3-.2-7.1 4.8 0 7.6.2 10.1.5 7 .9 8.2 4.5 8.2 6.7C69.9 34.8 60 38 51.6 38c.2-1.2.2-7.7.2-8.5v-3.2zm5.7 6.8c2.6-.5 6.2-2.3 6.2-6 0-3.1-3.1-3.9-6.2-3.9v9.9zM79.7 29.8c0 2.6.2 7.3.2 7.9h-6c0-1.1.2-7.3.2-8.1v-2.8c0-.5-.2-7.3-.2-7.9h6c0 .5-.2 4.8-.2 7.9v3zM98.3 38c-.9.2-1.9.2-3.1.2-8.7 0-11.8-4.3-11.8-7.9 0-4.3 4-9.6 13-11.6l1.1 5.1c-5.6.9-7.7 3.4-7.7 5.9 0 2 2.2 3.7 5.7 3.7 1.1 0 1.9-.2 2.5-.2l.3 4.8zM114 38c-.9 0-10.4-.3-11.8-.3.2-1.4.2-7 .2-7.6v-3.6c0-.5 0-6.8-.2-7.6 1.5 0 10.4-.5 11.3-.5l.2 4.3c-.9 0-5.1.2-5.6.2v3.4c.5 0 3.6-.2 4.6-.3l.2 4.2c-.8 0-4.2-.2-4.8-.2v3.1h5.9V38zM54.5 14.6c.1-.5.1-5.2.1-7.7V4.4c-1.8 0-3.9.2-4.3.2V3.3c.6.2 4.2.2 4.3.2H56c.3 0 3.6 0 4.3-.2v1.3c-.3 0-3-.2-4.3-.2V7c0 3.2.1 7.1.1 7.4h-1.6v.2zM62.2 14.6V8.9c0-.3 0-3.5-.1-3.9h1.5c0 .3-.1 3.1-.1 3.2v1l5.8-.3V8 4.9h1.5c0 .3-.1 4-.1 4.4v5.2H69c0-.5.1-2.9.1-3.2v-1.1l-5.6.2v4h-1.3v.2zM79.4 14.7c-.4 0-4.6-.2-4.9-.2V8.8 5.1c.3 0 3.9-.2 4.6-.3v1.1h-3.3v3.4c.3 0 2.1 0 2.8-.2v1.1h-2.8v3.2h3.4l.2 1.3z"/><g class="st1"><path class="st0" d="M121.7 35.1c.8-1.5 8.4-14.2 11.1-18.4h.3c3.2 5 10.6 16.6 11.8 18.1l-5.5 3.2c-.8-1.3-2.3-3.7-2.4-4.2l-8.4.5c-.2.3-1.1 2.6-1.8 3.9l-5.1-3.1zm13.4-5.1c-.8-1.6-1.8-3.5-2.3-4.7-.6 1.3-1.6 3.4-2.3 4.8l4.6-.1zM161.7 33.5v3.4c-.8.2-3.1.5-5.6.5-7.4 0-10.5-3.2-10.5-6.9 0-2.9 2.7-8.5 13.2-10.5l1.1 4.8c-3.5.5-8.1 2.1-8.1 5.3 0 2.3 2.4 3.1 4.2 3.1v-1.8-2.1h5.6v2.3c.1 0 .1 1.9.1 1.9zM177.5 37.4c-1 0-10-.3-11.4-.3v-9.9-6.6c1.6 0 10-.3 11-.5l.2 4c-1 0-4.8.2-5.3.2v2.9c.5 0 3.4-.2 4.5-.2v3.9c-.6 0-4-.2-4.5-.2v2.6h5.6v4.1z"/></g><path class="st4" d="M-18.5 32.8c-2.1.6-5.3-.3-5.9-2.4"/><g><path class="st0" d="M-13 118.7c3.9-.4 8 .9 11.2 3.6 3.2 2.7 5.3 6.8 5.7 11.2.4 4.4-1.1 9.1-4.2 12.7-3 3.6-7.7 5.9-12.7 6.3v-10.1c2.3.3 4.9-.3 6.9-1.9 2.1-1.6 3.6-4.1 3.9-6.9.3-2.8-.5-5.9-2.5-8.4-1.9-2.4-5-4.2-8.4-4.5v-2z"/></g><g><path class="st2" d="M50.9 102.1c-3.1 3.6-7.7 5.7-12.7 6 0 2.3-1.8 4.1-4.1 4.1H11.6c-2.3 0-4.1-1.8-4.1-4.1V85.6c0-2.3 1.8-4.1 4.1-4.1h22.5c2.3 0 4.1 1.8 4.1 4.1v12.6c2.4 0 4.9-.3 6.9-1.9 2.1-1.6 3.6-4.1 3.9-6.9.3-2.8-.5-5.9-2.5-8.4-1.8-2.3-4.6-3.9-7.7-4.4-.4-.1-.6-.4-.6-.7v-.8c0-.4.2-.6.5-.6 3.8-.2 7.7 1.1 10.7 3.7 3.2 2.7 5.3 6.8 5.7 11.2.4 4.5-1.1 9.2-4.2 12.7z"/><path class="st4" d="M37.3 108.2c-2.2.1-5-1.6-5.1-3.8"/><path class="st5" d="M25.6 97.3c-.1 1.7-1.6 3.1-3.3 3-1.7-.1-3.1-1.6-3-3.3.1-1.6 1.4-2.8 3-3 1.7-.1 3.2 1.2 3.3 3v.3z"/></g><path class="st6" d="M40.2 19.8c-1.2 3.7-4.1 6.8-7.8 8.6.7 1.8-.1 3.8-1.9 4.5L13.2 40c-1.7.7-3.8-.1-4.5-1.9L1.6 20.8c-.7-1.8.1-3.8 1.9-4.5l17.3-7.1c1.8-.7 3.8.1 4.5 1.9l4 9.7c1.8-.7 3.7-1.7 4.7-3.6 1.1-1.9 1.4-4.3.8-6.6-.6-2.3-2.2-4.4-4.5-5.7-2.1-1.2-4.8-1.6-7.3-.9-.3.1-.6-.1-.7-.4l-.3-.5c-.1-.3 0-.5.2-.6 2.8-1.4 6.3-1.6 9.4-.6 3.3 1.1 6.3 3.5 7.9 6.8 1.6 3.3 2 7.4.7 11.1zM31.7 28.7c-1.6.7-4.4.4-5.1-1.3"/><path class="st5" d="M19.3 24.1c.5 1.4-.3 2.9-1.6 3.3-1.4.5-2.9-.3-3.3-1.6-.4-1.3.1-2.6 1.3-3.2 1.3-.6 2.9-.1 3.5 1.2 0 .1 0 .2.1.3z"/><path class="st2" d="M129.8 82.7c-1.2 3.7-4.1 6.8-7.8 8.6.7 1.8-.1 3.8-1.9 4.5l-17.3 7.1c-1.7.7-3.8-.1-4.5-1.9l-7.1-17.3c-.7-1.8.1-3.8 1.9-4.5l17.3-7.1c1.8-.7 3.8.1 4.5 1.9l4 9.7c1.8-.7 3.7-1.7 4.7-3.6 1.1-1.9 1.4-4.3.8-6.6-.6-2.3-2.2-4.4-4.5-5.7-2.1-1.2-4.8-1.6-7.3-.9-.3.1-.6-.1-.7-.4l-.2-.6c-.1-.3 0-.5.2-.6 2.8-1.4 6.3-1.6 9.4-.6 3.3 1.1 6.3 3.5 7.9 6.8 1.6 3.5 1.9 7.6.6 11.2z"/><path class="st4" d="M121.3 91.7c-1.6.7-4.4.4-5.1-1.3"/><path class="st5" d="M108.9 87.1c.5 1.4-.3 2.9-1.6 3.3-1.4.5-2.9-.3-3.3-1.6-.4-1.3.1-2.6 1.3-3.2 1.3-.6 2.9-.1 3.5 1.2 0 .1.1.2.1.3z"/><g id="Artwork_5_1_"><defs><path id="SVGID_1_" d="M-113.5-108.1h98.7V3.8h-98.7z"/></defs><clipPath id="SVGID_2_"><use xlink:href="#SVGID_1_" overflow="visible"/></clipPath><g clip-path="url(#SVGID_2_)"><defs><path id="SVGID_3_" d="M-113.5-108.1h98.7V3.8h-98.7z"/></defs><clipPath id="SVGID_4_"><use xlink:href="#SVGID_3_" overflow="visible"/></clipPath><path d="M-81.4-96.1c19.7-25 50-7.7 62.5 22.5S-23.6-4.4-59.4 2.8c-35.8 7.2-58.2-23.7-53.4-55.5 4.8-31.8 11.7-18.3 31.4-43.4" clip-path="url(#SVGID_4_)" fill="#a9e37d"/><path class="st9" d="M-48.3-97.7l5.2 5.2M-43.1-97.7l-5.2 5.2M-104.3-30.7l5.2 5.2M-99.1-30.7l-5.2 5.2"/><circle class="st10" cx="-31.8" cy="-41.4" r="2.5"/><circle class="st10" cx="-76.8" cy="-3.4" r="2.5"/><circle class="st10" cx="-93.1" cy="-47.7" r="1.3"/><path class="st11" d="M-64.6-37.1h8.6v9.3h-8.6zM-38.8-85.1v31.4c0 .2 0 .5-.1.7-.1 1.4-.4 2.7-.8 3.9-1.3 4-4 7.3-7.5 9.4-2.5 1.5-5.5 2.4-8.7 2.4h-8.9c-3.2 0-6.2-.9-8.7-2.4C-77-41.6-79.7-45-81-49c-.4-1.3-.7-2.6-.8-3.9 0-.5-.1-1-.1-1.5v-30.7h43.1z"/><path class="st11" d="M-41.8-21.1v.9h-36.6v-.9-.9c.1-.5.1-1 .3-1.5.2-.9.6-1.8 1-2.5 1.7-3 5-5 8.7-5h16.6c3.7 0 7 2 8.7 5 .5.8.8 1.6 1 2.5l.3 1.5v.9zM-24.6-80.2v12.7c0 5.8-3.3 10.7-8.1 13.1-1.9.9-4 1.4-6.2 1.4v-27.2h14.3zM-81.8-52.9c-1.9 0-3.6-.4-5.3-1.1-1.1-.4-2.1-1-3-1.7-3.3-2.5-5.4-6.4-5.5-10.8V-80.2h13.7v25.8c.1.5.1 1 .1 1.5z"/><path class="st9" d="M-45-78.6v23.8c-.5 6.6-5.5 11.7-11.5 11.7M-76-76.6v11"/><path clip-path="url(#SVGID_4_)" fill="#fff" d="M-89.9-23.5h60.8v10h-60.8z"/><path clip-path="url(#SVGID_4_)" fill="none" stroke="#1a1a1a" stroke-width="3" stroke-miterlimit="10" d="M-89.9-23.5h60.8v10h-60.8z"/></g></g></svg>