<svg xmlns="http://www.w3.org/2000/svg" viewBox="0 0 111.56 111.56"><defs><style>.cls-1{fill:#a9e37d;}.cls-2,.cls-3,.cls-5,.cls-6{fill:none;}.cls-2,.cls-3{stroke:#282828;}.cls-2,.cls-3,.cls-6{stroke-linecap:round;stroke-miterlimit:10;}.cls-2,.cls-6{stroke-width:2.86px;}.cls-3{stroke-width:1.91px;}.cls-4{fill:#282828;}.cls-6{stroke:#fff;}</style></defs><g id="Coin"><path class="cls-1" d="M103.43,69.39c9.21,31.46-22.81,46.84-55,39.53S-5.91,64,9,29.43,62.45-5.76,85.91,17.13,94.22,37.93,103.43,69.39Z"/><line class="cls-2" x1="10.23" y1="66.95" x2="15.24" y2="71.96"/><line class="cls-2" x1="15.24" y1="66.95" x2="10.23" y2="71.96"/><line class="cls-2" x1="74.16" y1="23.06" x2="79.17" y2="28.07"/><line class="cls-2" x1="79.17" y1="23.06" x2="74.16" y2="28.07"/><circle class="cls-3" cx="34.57" cy="35.74" r="2.41"/><circle class="cls-3" cx="66.06" cy="99.67" r="2.41"/><circle class="cls-3" cx="40.05" cy="23.08" r="1.21"/><circle class="cls-3" cx="93.48" cy="74.61" r="1.21"/><path class="cls-4" d="M57.72,23.2a10,10,0,0,1,7.73,3.74A11.51,11.51,0,0,1,68,34.22c0,.37,0,.76-.06,1.18a11.9,11.9,0,0,1-.66,2.85l-.89,2.42,2.32,1.14,9.52,4.67,3,1.47,7.62,3.74a3.08,3.08,0,0,1,.75.53,3.3,3.3,0,0,1,1,2.39v.27a4,4,0,0,1-.27,1.43,3.19,3.19,0,0,1-.24.49l0,0,0,0a3.73,3.73,0,0,1-.33.47,3.08,3.08,0,0,1-2.37,1.13h-.13l-13,.59-4.59.21,2.21,4,3,5.47L79,76.48l0,0,0,0,4.55,7.56,2.48,4.11.39.64h-16a.25.25,0,0,1-.19-.07l0,0,0,0,0-.08-4-7.39-1.93-3.51L61.62,73.1l-.1-.19a4.32,4.32,0,0,0-7.6,0l0,0v0l-.07.12-2.57,4.71-1.93,3.52-4,7.38,0,0v0l0,0,0,0a.24.24,0,0,1-.18.07H28.91l.27-.44,4.72-7.83,2.43-4,0,0,0-.06.35-.66,4-7.2,2.91-5.33,2.2-4-4.59-.2-5.56-.25-7.46-.32h-.12a3.14,3.14,0,0,1-2.39-1.14,3.77,3.77,0,0,1-.88-2.45v-.27a3.05,3.05,0,0,1,.08-.72,3.11,3.11,0,0,1,1.64-2.19l10.64-5.22,9.52-4.67L49,40.67l-.88-2.41a11.41,11.41,0,0,1-.66-2.85,10.2,10.2,0,0,1-.07-1.19,11.14,11.14,0,0,1,.12-1.65,11.44,11.44,0,0,1,1.78-4.71A7.62,7.62,0,0,1,50,27a10.05,10.05,0,0,1,7.75-3.75m0-2.86a12.86,12.86,0,0,0-9.95,4.79,9.85,9.85,0,0,0-.87,1.17,14.21,14.21,0,0,0-2.22,5.87,15.34,15.34,0,0,0-.14,2,14.84,14.84,0,0,0,.9,5l-9.53,4.67L25.27,49.13A6,6,0,0,0,22.1,53.3,5.66,5.66,0,0,0,22,54.61v.27a6.63,6.63,0,0,0,1.57,4.3,6,6,0,0,0,4.57,2.16l7.45.32,5.56.25-2.91,5.32-3.95,7.21-.36.67-2.43,4L26.73,87l-.54.88a2.55,2.55,0,0,0,2,3.91H45a3.15,3.15,0,0,0,2.17-.88,3.2,3.2,0,0,0,.65-.84l4-7.38,1.93-3.52,2.57-4.7.09-.16a1.46,1.46,0,0,1,2.59,0l.08.16,2.58,4.7,1.93,3.52,4,7.38a3,3,0,0,0,.65.84,3.12,3.12,0,0,0,2.18.88H87.19a2.55,2.55,0,0,0,2-3.91l-.64-1.07L86.1,82.66l-4.55-7.55L77.33,67.4l-3-5.47,13-.59a6,6,0,0,0,4.56-2.16,7.12,7.12,0,0,0,.63-.89,6.08,6.08,0,0,0,.46-.92,6.89,6.89,0,0,0,.47-2.49v-.27a6.19,6.19,0,0,0-1.87-4.46,6.12,6.12,0,0,0-1.45-1l-7.64-3.75-3-1.47L70,39.24a14.81,14.81,0,0,0,.82-3.55,14.29,14.29,0,0,0-3.15-10.56,12.84,12.84,0,0,0-9.94-4.79Z"/><path class="cls-5" d="M93.47,54.61v.27A6.89,6.89,0,0,1,93,57.37a6.08,6.08,0,0,1-.46.92,7.12,7.12,0,0,1-.63.89,6,6,0,0,1-4.56,2.16l-13,.59,3,5.47,4.22,7.71,4.55,7.55,2.49,4.12.64,1.07a2.55,2.55,0,0,1-2,3.91H70.47a3.12,3.12,0,0,1-2.18-.88,3,3,0,0,1-.65-.84l-4-7.38-1.93-3.52-2.58-4.7L59,74.28a1.46,1.46,0,0,0-2.59,0l-.09.16-2.57,4.7-1.93,3.52-4,7.38a3.2,3.2,0,0,1-.65.84,3.15,3.15,0,0,1-2.17.88H28.23a2.55,2.55,0,0,1-2-3.91l.54-.88,4.72-7.83,2.43-4,.36-.67,3.95-7.21,2.91-5.32-5.56-.25-7.45-.32a6,6,0,0,1-4.57-2.16A6.63,6.63,0,0,1,22,54.88v-.27a5.66,5.66,0,0,1,.15-1.31,6,6,0,0,1,3.17-4.17l10.64-5.22,9.53-4.67a14.84,14.84,0,0,1-.9-5,15.34,15.34,0,0,1,.14-2A14.21,14.21,0,0,1,46.9,26.3a9.85,9.85,0,0,1,.87-1.17,12.72,12.72,0,0,1,19.89,0,14.29,14.29,0,0,1,3.15,10.56A14.81,14.81,0,0,1,70,39.24l9.52,4.67,3,1.47,7.64,3.75a6.12,6.12,0,0,1,1.45,1A6.19,6.19,0,0,1,93.47,54.61Z"/><path class="cls-6" d="M60,27.2C62.88,28.91,64,33,63.33,36.51"/><line class="cls-6" x1="75.16" y1="77.04" x2="78.43" y2="83.24"/><line class="cls-6" x1="67.81" y1="63.08" x2="73.12" y2="73.16"/></g></svg>