<svg version="1.1" id="Layer_1" xmlns="http://www.w3.org/2000/svg" x="0" y="0" viewBox="0 0 111.6 111.6" xml:space="preserve"><style>.st42,.st43,.st5{fill:#fff;stroke:#282828;stroke-width:3;stroke-miterlimit:10}.st42,.st43{fill:none;stroke-width:2.8626;stroke-linecap:round}.st43{stroke-width:1.9084}</style><path d="M103.4 69.4c9.2 31.5-22.8 46.8-55 39.5C16.2 101.6-5.9 64 9 29.4 23.9-5.1 62.4-5.8 85.9 17.1s8.3 20.8 17.5 52.3z" fill="#a9e37d"/><path class="st42" d="M60.5 95.6l2.6 6.7M65.1 97.6l-6.6 2.7M36.3 10.4l6.2 3.4M41.1 9l-3.4 6.2"/><circle class="st43" cx="17" cy="32.9" r="2.4"/><circle class="st43" cx="61.9" cy="17.9" r="2.4"/><circle class="st43" cx="18.2" cy="87.1" r="1.2"/><circle class="st43" cx="92.7" cy="93.4" r="1.2"/><g><path class="st5" d="M97.6 45.2l-16-7.5c.5-1.2.7-2.5.7-3.8 0-5.8-4.7-10.5-10.5-10.5s-10.5 4.7-10.5 10.5c0 1.3.3 2.6.7 3.8l-16.1 7.5c-1.6.7-2.6 2.3-2.6 4.1v.2c0 2.7 2.2 4.9 4.9 4.9l10.3.4-5.8 10-6.1 9.6c-.8 1.3.1 3 1.6 3h13.3c1 0 1.8-.5 2.3-1.3l6.9-11.9c.5-.8 1.6-.8 2.1 0l6.9 11.9c.5.8 1.4 1.3 2.3 1.3h13.3c1.5 0 2.4-1.7 1.6-3l-6.1-9.6-5.8-9.9 10.4-.5c2.7 0 4.9-2.2 4.8-4.9v-.2c0-1.7-1-3.3-2.6-4.1z"/><path class="st5" d="M63.3 45.2l-16-7.5c.5-1.2.7-2.5.7-3.8 0-5.8-4.7-10.5-10.5-10.5S27 28.1 27 33.9c0 1.3.3 2.6.7 3.8l-16.1 7.5C10 45.9 9 47.5 9 49.3v.2c0 2.7 2.2 4.9 4.9 4.9l10.3.4-5.8 10-6.1 9.6c-.8 1.3.1 3 1.6 3h13.3c1 0 1.8-.5 2.3-1.3l6.9-11.9c.5-.8 1.6-.8 2.1 0l6.9 11.9c.5.8 1.4 1.3 2.3 1.3H61c1.5 0 2.4-1.7 1.6-3l-6.1-9.6-5.8-9.9 10.4-.5c2.7 0 4.9-2.2 4.8-4.9v-.2c0-1.7-1-3.3-2.6-4.1z"/><path d="M83.3 51l-18.1-8.5c.5-1.3.8-2.8.8-4.3 0-6.6-5.3-11.9-11.9-11.9s-11.9 5.3-11.9 11.9c0 1.5.3 2.9.8 4.3L24.7 51c-1.8.8-2.9 2.6-2.9 4.6v.2c0 3.1 2.5 5.5 5.5 5.5l11.7.6-6.5 11.3-7 10.8c-.9 1.5.1 3.4 1.8 3.4h15.1c1.1 0 2-.6 2.6-1.5l7.8-13.5c.6-.9 1.8-.9 2.4 0L63 85.9c.6.9 1.6 1.5 2.6 1.5h15.1c1.7 0 2.7-1.9 1.8-3.4l-6.9-10.9L69 61.9l11.8-.5c3.1 0 5.5-2.5 5.4-5.5v-.2c0-2-1.1-3.8-2.9-4.7z" fill="#a9e37d" stroke="#282828" stroke-width="3.395" stroke-miterlimit="10"/><path class="st42" d="M56.2 31.4c2.9 1.7 4 5.8 3.4 9.3M71.7 77.2l3.2 6.2M64.3 63.3l5.3 10.1"/></g></svg>