<svg xmlns="http://www.w3.org/2000/svg" viewBox="0 0 111.56 111.56"><defs><style>.cls-1{fill:#a9e37d;}.cls-2,.cls-3,.cls-4,.cls-5{fill:none;}.cls-2,.cls-3,.cls-5,.cls-6{stroke:#282828;}.cls-2,.cls-3,.cls-4,.cls-5,.cls-6{stroke-linecap:round;stroke-miterlimit:10;}.cls-2{stroke-width:2.86px;}.cls-3{stroke-width:1.91px;}.cls-4{stroke:#29abe2;}.cls-4,.cls-5,.cls-6{stroke-width:3.23px;}.cls-6{fill:#fff;}</style></defs><g id="All"><path class="cls-1" d="M3.74,48.26C-8.95,19.68,21.12-2.92,56,1.28s64.44,43.17,51.76,76.59S47.67,120,20.61,100.56,16.44,76.85,3.74,48.26Z"/></g><g id="Coin"><line class="cls-2" x1="44.76" y1="102.63" x2="49.77" y2="107.63"/><line class="cls-2" x1="49.77" y1="102.63" x2="44.76" y2="107.63"/><line class="cls-2" x1="19.01" y1="38.72" x2="24.02" y2="43.73"/><line class="cls-2" x1="24.02" y1="38.72" x2="19.01" y2="43.73"/><circle class="cls-3" cx="47.16" cy="11.34" r="2.41"/><circle class="cls-3" cx="93.9" cy="42.82" r="2.41"/><circle class="cls-3" cx="30.7" cy="63.55" r="1.21"/><line class="cls-2" x1="80.44" y1="55.38" x2="80.44" y2="62.46"/><line class="cls-2" x1="83.98" y1="58.92" x2="76.9" y2="58.92"/><path class="cls-4" d="M67.89,85.14a3.17,3.17,0,0,1,0,.44H46a3.17,3.17,0,0,1,0-.44,10.95,10.95,0,0,1,21.9,0Z"/><path class="cls-5" d="M73.53,72.34a18.23,18.23,0,0,1,.8,5.35,18,18,0,0,1-.48,4.18,17.68,17.68,0,0,1-.78,2.53,1.85,1.85,0,0,1-1.71,1.17H66.87c0-.14,0-.28,0-.43s0-.56,0-.84a9.34,9.34,0,0,0-.21-1.42c0-.1,0-.2-.06-.3s-.12-.47-.19-.71a11.09,11.09,0,0,0-1.28-2.69c-.07-.12-.15-.24-.23-.35a10.62,10.62,0,0,0-1.3-1.53c-.12-.12-.25-.23-.38-.34a5.63,5.63,0,0,0-.45-.38,5.15,5.15,0,0,0-.48-.37,5,5,0,0,0-.48-.32,5.09,5.09,0,0,0-.5-.3,5.48,5.48,0,0,0-.53-.28c-.18-.09-.36-.18-.54-.25A10.73,10.73,0,0,0,59,74.62a4.39,4.39,0,0,0-.52-.13l-.32-.08-.54-.1-.54-.07c-.37,0-.74,0-1.12,0s-.76,0-1.12,0l-.54.07-.54.1-.32.08a4,4,0,0,0-.52.13,10.73,10.73,0,0,0-1.24.44,4.45,4.45,0,0,0-.54.25,4.52,4.52,0,0,0-.53.28q-.26.14-.51.3a4.87,4.87,0,0,0-.47.32c-.16.11-.32.23-.49.37a5.63,5.63,0,0,0-.45.38c-.13.11-.26.22-.38.34A11.22,11.22,0,0,0,47,78.83c-.09.11-.16.23-.24.35a10.71,10.71,0,0,0-1.27,2.69c-.07.24-.14.47-.19.71a1.63,1.63,0,0,0-.07.3A10.79,10.79,0,0,0,45,84.3c0,.28,0,.56,0,.84a3,3,0,0,0,0,.43h-4.5a1.83,1.83,0,0,1-1.7-1.17A17.68,17.68,0,0,1,38,81.87a18,18,0,0,1-.48-4.18,17.51,17.51,0,0,1,.19-2.63,17.82,17.82,0,0,1,.6-2.72A18.44,18.44,0,0,1,50.67,60.07h0A1.82,1.82,0,0,0,52,58.33V53.27a1.8,1.8,0,0,0-1.27-1.73A18.41,18.41,0,0,1,37.79,36.91a18.59,18.59,0,0,1-.24-3,16.53,16.53,0,0,1,.17-2.45,17.63,17.63,0,0,1,1-4.09,1.8,1.8,0,0,0,.08-.21A1.82,1.82,0,0,1,40.51,26H71.36a1.92,1.92,0,0,1,1.77,1.34,17.16,17.16,0,0,1,1,4.09,16.53,16.53,0,0,1,.17,2.45,18.59,18.59,0,0,1-.25,3,18.17,18.17,0,0,1-3.54,8.18,18.44,18.44,0,0,1-9.38,6.45,1.81,1.81,0,0,0-1.28,1.73v5a1.83,1.83,0,0,0,1.33,1.75h0A18.45,18.45,0,0,1,73.29,71.58C73.37,71.82,73.46,72.08,73.53,72.34Z"/><path class="cls-6" d="M67.89,85.14a3.17,3.17,0,0,1,0,.44H46a3.17,3.17,0,0,1,0-.44,10.95,10.95,0,0,1,21.9,0Z"/><path class="cls-6" d="M55.94,46.51a10.66,10.66,0,0,1-2.41-.26,11.24,11.24,0,0,1-8.83-11h8.07a4.81,4.81,0,0,0,9.26,0h5.14a11.21,11.21,0,0,1-8.82,11A10.66,10.66,0,0,1,55.94,46.51Z"/><path class="cls-6" d="M88.78,90a4,4,0,0,1-1.18,2.81,2.54,2.54,0,0,1-.29.28,5.33,5.33,0,0,1-3.52,1.29H28.09a5.51,5.51,0,0,1-1.48-.2A4.51,4.51,0,0,1,23.1,90a3.85,3.85,0,0,1,.21-1.27,4.32,4.32,0,0,1,1.25-1.83,5.38,5.38,0,0,1,3.53-1.29h55.7a5.4,5.4,0,0,1,2.06.4A4.41,4.41,0,0,1,88.78,90Z"/><path class="cls-6" d="M88.78,21.65a4.13,4.13,0,0,1-1.47,3.09A5.33,5.33,0,0,1,83.79,26H28.09c-2.75,0-5-2-5-4.38a4.13,4.13,0,0,1,1.46-3.1,5.42,5.42,0,0,1,1.09-.72,5.51,5.51,0,0,1,2.44-.57h55.7a4.94,4.94,0,0,1,4.83,3.3A3.88,3.88,0,0,1,88.78,21.65Z"/></g></svg>