<svg version="1.1" id="Layer_1" xmlns="http://www.w3.org/2000/svg" x="0" y="0" viewBox="0 0 111.6 111.6" xml:space="preserve"><style>.st37,.st38,.st41{fill:none;stroke:#282828;stroke-width:1.9076;stroke-linecap:round;stroke-miterlimit:10}.st38,.st41{stroke-width:2.8614}.st41{fill:#fff;stroke-width:3.2344}</style><path d="M3.7 48.3C-9 19.7 21.1-2.9 56 1.3s64.4 43.2 51.8 76.6c-12.7 33.4-60.1 42.1-87.2 22.7S16.4 76.8 3.7 48.3z" fill="#a9e37d"/><path class="st38" d="M44.9 103.2l6.8 1.9M49.3 100.7l-2 6.8M11.3 25.5l1.2 7M15.4 28.4l-7 1.2"/><circle class="st37" cx="93.9" cy="42.8" r="2.4"/><circle class="st37" cx="29.5" cy="62.5" r="2.4"/><circle class="st37" cx="63.1" cy="9" r="1.2"/><circle class="st37" cx="14.2" cy="74.2" r="1.2"/><path class="st38" d="M94.5 67.3l-1.2 7M97.5 71.3l-7-1.1"/><path d="M67.9 85.1v.4H46v-.4c0-6 4.9-10.9 10.9-10.9 6.1 0 11 4.9 11 10.9z" fill="none" stroke="#29abe2" stroke-width="3.234" stroke-linecap="round" stroke-miterlimit="10"/><path d="M73.5 72.3c.5 1.7.8 3.5.8 5.3 0 1.4-.2 2.8-.5 4.2-.2.9-.5 1.7-.8 2.5-.3.7-1 1.2-1.7 1.2h-4.5v-.4-.8c0-.5-.1-1-.2-1.4 0-.1 0-.2-.1-.3-.1-.2-.1-.5-.2-.7-.3-1-.7-1.9-1.3-2.7-.1-.1-.2-.2-.2-.3-.4-.5-.8-1.1-1.3-1.5-.1-.1-.2-.2-.4-.3-.1-.1-.3-.3-.5-.4s-.3-.3-.5-.4-.3-.2-.5-.3-.3-.2-.5-.3-.4-.2-.5-.3-.4-.2-.5-.2c-.4-.2-.8-.3-1.2-.4-.2 0-.3-.1-.5-.1-.1 0-.2-.1-.3-.1-.2 0-.4-.1-.5-.1-.2 0-.4-.1-.5-.1-.4 0-.7-.1-1.1-.1s-.8 0-1.1.1c-.2 0-.4 0-.5.1-.2 0-.4.1-.5.1s-.2 0-.3.1c-.2 0-.4.1-.5.1-.4.1-.8.3-1.2.4-.2.1-.4.2-.5.2-.2.1-.4.2-.5.3-.2.1-.3.2-.5.3s-.3.2-.5.3-.3.2-.5.4c-.2.1-.3.2-.5.4-.1.1-.3.2-.4.3-.5.5-.9 1-1.3 1.5-.1.1-.2.2-.2.3-.5.8-1 1.7-1.3 2.7-.1.2-.1.5-.2.7 0 .1 0 .2-.1.3-.1.5-.2.9-.2 1.4V85.5h-4.5c-.8 0-1.4-.5-1.7-1.2-.3-.8-.6-1.7-.8-2.5-.3-1.3-.5-2.7-.5-4.2 0-.9.1-1.8.2-2.6.1-.9.3-1.8.6-2.7 1.8-5.9 6.4-10.5 12.3-12.3h0c.8-.2 1.3-.9 1.3-1.7v-5.1c0-.8-.5-1.5-1.3-1.7-3.8-1.1-7-3.4-9.4-6.5-1.8-2.3-3.1-5.1-3.5-8.2-.2-1-.2-2-.2-3 0-.8.1-1.6.2-2.4.2-1.4.5-2.8 1-4.1 0-.1.1-.1.1-.2.3-.7.9-1.1 1.7-1.1h30.8c.7 0 1.4.4 1.7 1.1 0 .1.1.1.1.2.5 1.3.9 2.7 1 4.1.1.8.2 1.6.2 2.4 0 1-.1 2-.2 3-.5 3-1.7 5.8-3.5 8.2-2.3 3-5.6 5.3-9.4 6.5-.8.2-1.3.9-1.3 1.7v5.1c0 .8.5 1.5 1.3 1.7h0c5.6 1.7 10.1 6 12.1 11.5-.1.3 0 .6 0 .8z" fill="none" stroke="#282828" stroke-width="3.234" stroke-linecap="round" stroke-miterlimit="10"/><path class="st41" d="M67.9 85.1v.4H46v-.4c0-6 4.9-10.9 10.9-10.9 6.1 0 11 4.9 11 10.9zM55.9 46.5c-.8 0-1.6-.1-2.4-.3-5-1.1-8.8-5.6-8.8-11h8.1c.6 2 2.4 3.5 4.6 3.5s4.1-1.5 4.6-3.5h5.1c0 5.4-3.8 9.9-8.8 11-.7.2-1.5.3-2.4.3zM88.8 90c0 1.1-.4 2-1.2 2.8l-.3.3c-.9.8-2.1 1.3-3.5 1.3H28.1c-.5 0-1-.1-1.5-.2-2-.6-3.5-2.2-3.5-4.2 0-.4.1-.9.2-1.3.2-.7.7-1.3 1.3-1.8.9-.8 2.1-1.3 3.5-1.3h55.7c.7 0 1.4.1 2.1.4 1.7.7 2.9 2.2 2.9 4zM88.8 21.6c0 1.2-.6 2.3-1.5 3.1-.9.8-2.1 1.3-3.5 1.3H28.1c-2.7 0-5-2-5-4.4 0-1.2.6-2.3 1.5-3.1.3-.3.7-.5 1.1-.7.7-.4 1.6-.6 2.4-.6h55.7c2.3 0 4.3 1.4 4.8 3.3.1.4.2.8.2 1.1z"/></svg>